<svg xmlns="http://www.w3.org/2000/svg" xmlns:xlink="http://www.w3.org/1999/xlink" xmlns:lucid="lucid" width="1034.67" height="407.75"><g transform="translate(0 0)" lucid:page-tab-id="IdvYu_wE_uAG"><path d="M0 0h1870.87v1322.84H0z" fill="#fff"/><path d="M166 254h240v60H166z" fill="none"/><use xlink:href="#a" transform="matrix(1,0,0,1,166,254) translate(16.419753086419746 34.44444444444444)"/><use xlink:href="#b" transform="matrix(1,0,0,1,166,254) translate(152.03703703703704 34.44444444444444)"/><path d="M20 151.33a6 6 0 0 1 6-6h202.67a6 6 0 0 1 6 6v68a6 6 0 0 1-6 6H26a6 6 0 0 1-6-6z" stroke="#fff" fill="#7c36ff"/><use xlink:href="#c" transform="matrix(1,0,0,1,32,157.33333333333326) translate(53.2777777777778 31.666666666666664)"/><use xlink:href="#d" transform="matrix(1,0,0,1,32,157.33333333333326) translate(99.27777777777777 31.666666666666664)"/><path d="M410 151.33a6 6 0 0 1 6-6h202.67a6 6 0 0 1 6 6v68a6 6 0 0 1-6 6H416a6 6 0 0 1-6-6z" stroke="#fff" fill="#ff488b"/><use xlink:href="#c" transform="matrix(1,0,0,1,422,157.33333333333326) translate(36.64814814814818 31.666666666666664)"/><use xlink:href="#e" transform="matrix(1,0,0,1,422,157.33333333333326) translate(82.64814814814815 31.666666666666664)"/><path d="M800 151.33a6 6 0 0 1 6-6h202.67a6 6 0 0 1 6 6v68a6 6 0 0 1-6 6H806a6 6 0 0 1-6-6z" stroke="#fff" fill="#d9d9d9"/><use xlink:href="#f" transform="matrix(1,0,0,1,812,157.33333333333326) translate(29.33333333333337 31.666666666666664)"/><use xlink:href="#g" transform="matrix(1,0,0,1,812,157.33333333333326) translate(104.74074074074073 31.666666666666664)"/><path d="M907.33 144.33v-4.7m0-4.7v-9.43m0-4.7v-9.42m0-4.7v-9.43m0-4.7v-9.42m0-4.7V69m0-4.7v-9.42m0-4.7v-9.43m0-4.7v-4.72l-.07-.93-.22-.92-.36-.87-.5-.8-.6-.7-.72-.62-.8-.5-.87-.35-.93-.22-.94-.07h-5.04m-5.05 0h-10.08m-5.04 0h-10.08m-5.04 0h-10.07m-5.04 0h-10.1m-5.03 0H820.7m-5.05 0h-10.08m-5.04 0h-10.08m-5.04 0h-10.07m-5.04 0h-10.1m-5.03 0H745.1m-5.05 0h-10.08m-5.04 0h-10.08m-5.04 0h-10.07m-5.04 0h-10.1m-5.03 0H669.5m-5.05 0h-10.08m-5.04 0h-10.08m-5.04 0h-10.07m-5.04 0H609m-5.03 0H593.9m-5.05 0h-10.08m-5.04 0h-10.08m-5.04 0h-10.07m-5.04 0h-10.1m-5.03 0h-5.04l-.94.08-.92.23-.87.36-.8.48-.7.6-.62.73-.5.8-.35.88-.22.9-.07.95v5.4m0 5.4V52.9m0 5.4v10.8m0 5.4v10.8m0 5.38v10.8m0 5.4v10.78m0 5.4v5.4" stroke="#3a414a" fill="none"/><path d="M907.83 144.83h-1v-.5h1z" stroke="#3a414a" stroke-width=".05" fill="#3a414a"/><path d="M517.33 143.22l-4.63-14.27h9.27z" stroke="#3a414a" fill="#3a414a"/><path d="M625.67 185.33h157.45" stroke="#3a414a" fill="none"/><path d="M625.68 185.83h-.5v-1h.5z" stroke="#3a414a" stroke-width=".05" fill="#3a414a"/><path d="M797.88 185.33l-14.26 4.64v-9.27z" stroke="#3a414a" fill="#3a414a"/><path d="M660 20h240v60H660z" fill="none"/><use xlink:href="#h" transform="matrix(1,0,0,1,660,20) translate(11.57407407407409 34.44444444444444)"/><use xlink:href="#i" transform="matrix(1,0,0,1,660,20) translate(121.20370370370371 34.44444444444444)"/><path d="M183.13 242.22v17.6a6 6 0 0 0 6 6h235a6 6 0 0 0 6-6v-33.5" stroke="#3a414a" fill="none"/><path d="M183.13 227.45l4.64 14.27h-9.27z" stroke="#3a414a" fill="#3a414a"/><path d="M430.63 226.35h-1v-.52h1z" stroke="#3a414a" stroke-width=".05" fill="#3a414a"/><path d="M560 180h240v60H560z" fill="none"/><use xlink:href="#j" transform="matrix(1,0,0,1,560,180) translate(68.05555555555556 34.44444444444444)"/><path d="M172 327.75h240v60H172z" fill="none"/><use xlink:href="#k" transform="matrix(1,0,0,1,172,327.75002500000073) translate(28.117283950617278 34.44444444444444)"/><use xlink:href="#l" transform="matrix(1,0,0,1,172,327.75002500000073) translate(140.3395061728395 34.44444444444444)"/><path d="M517.33 226.33V330a6 6 0 0 1-6 6H77.8a6 6 0 0 1-6-6v-87.78" stroke="#3a414a" fill="none"/><path d="M517.83 226.35h-1v-.52h1z" stroke="#3a414a" stroke-width=".05" fill="#3a414a"/><path d="M71.8 227.45l4.64 14.27h-9.27z" stroke="#3a414a" fill="#3a414a"/><path d="M235.67 185.33h157.45" stroke="#3a414a" fill="none"/><path d="M235.68 185.83h-.5v-1h.5z" stroke="#3a414a" stroke-width=".05" fill="#3a414a"/><path d="M407.88 185.33l-14.26 4.64v-9.27z" stroke="#3a414a" fill="#3a414a"/><path d="M455.85 265.74c0 13.77-11.16 24.93-24.93 24.93-13.76 0-24.92-11.16-24.92-24.93 0-13.76 11.16-24.92 24.92-24.92 13.77 0 24.93 11.16 24.93 24.92z" stroke="#5e5e5e" fill="#fff"/><use xlink:href="#m" transform="matrix(1,0,0,1,411,245.82189062328172) translate(12.006172839506174 25.27777777777778)"/><path d="M680.4 153.08c0 13.76-11.15 24.92-24.9 24.92-13.78 0-24.93-11.16-24.93-24.92 0-13.77 11.15-24.93 24.92-24.93 13.75 0 24.9 11.16 24.9 24.93z" stroke="#5e5e5e" fill="#fff"/><g><use xlink:href="#n" transform="matrix(1,0,0,1,635.5661692682561,133.1552239566152) translate(12.006172839506174 25.27777777777778)"/></g><path d="M932.26 110.67c0 13.76-11.16 24.92-24.93 24.92-13.76 0-24.92-11.17-24.92-24.93 0-13.77 11.17-24.93 24.93-24.93 13.77 0 24.93 11.16 24.93 24.93z" stroke="#5e5e5e" fill="#fff"/><g><use xlink:href="#o" transform="matrix(1,0,0,1,887.410945311641,90.74427864497423) translate(12.006172839506174 25.27777777777778)"/></g><path d="M542.26 265.74c0 13.77-11.16 24.93-24.93 24.93-13.76 0-24.92-11.16-24.92-24.93 0-13.76 11.17-24.92 24.93-24.92 13.77 0 24.93 11.16 24.93 24.92z" stroke="#5e5e5e" fill="#fff"/><g><use xlink:href="#p" transform="matrix(1,0,0,1,497.41094531164094,245.82189062328172) translate(12.006172839506174 25.27777777777778)"/></g><defs><path fill="#3a414a" d="M205 0l-28-72H64L36 0H1l101-248h38L239 0h-34zm-38-99l-47-123c-12 45-31 82-46 123h93" id="q"/><path fill="#3a414a" d="M84 4C-5 8 30-112 23-190h32v120c0 31 7 50 39 49 72-2 45-101 50-169h31l1 190h-30c-1-10 1-25-2-33-11 22-28 36-60 37" id="r"/><path fill="#3a414a" d="M59-47c-2 24 18 29 38 22v24C64 9 27 4 27-40v-127H5v-23h24l9-43h21v43h35v23H59v120" id="s"/><path fill="#3a414a" d="M106-169C34-169 62-67 57 0H25v-261h32l-1 103c12-21 28-36 61-36 89 0 53 116 60 194h-32v-121c2-32-8-49-39-48" id="t"/><path fill="#3a414a" d="M100-194c62-1 85 37 85 99 1 63-27 99-86 99S16-35 15-95c0-66 28-99 85-99zM99-20c44 1 53-31 53-75 0-43-8-75-51-75s-53 32-53 75 10 74 51 75" id="u"/><path fill="#3a414a" d="M114-163C36-179 61-72 57 0H25l-1-190h30c1 12-1 29 2 39 6-27 23-49 58-41v29" id="v"/><path fill="#3a414a" d="M24-231v-30h32v30H24zM24 0v-190h32V0H24" id="w"/><path fill="#3a414a" d="M135-143c-3-34-86-38-87 0 15 53 115 12 119 90S17 21 10-45l28-5c4 36 97 45 98 0-10-56-113-15-118-90-4-57 82-63 122-42 12 7 21 19 24 35" id="x"/><path fill="#3a414a" d="M141-36C126-15 110 5 73 4 37 3 15-17 15-53c-1-64 63-63 125-63 3-35-9-54-41-54-24 1-41 7-42 31l-33-3c5-37 33-52 76-52 45 0 72 20 72 64v82c-1 20 7 32 28 27v20c-31 9-61-2-59-35zM48-53c0 20 12 33 32 33 41-3 63-29 60-74-43 2-92-5-92 41" id="y"/><path fill="#3a414a" d="M117-194c89-4 53 116 60 194h-32v-121c0-31-8-49-39-48C34-167 62-67 57 0H25l-1-190h30c1 10-1 24 2 32 11-22 29-35 61-36" id="z"/><g id="a"><use transform="matrix(0.06172839506172839,0,0,0.06172839506172839,0,0)" xlink:href="#q"/><use transform="matrix(0.06172839506172839,0,0,0.06172839506172839,14.814814814814813,0)" xlink:href="#r"/><use transform="matrix(0.06172839506172839,0,0,0.06172839506172839,27.160493827160494,0)" xlink:href="#s"/><use transform="matrix(0.06172839506172839,0,0,0.06172839506172839,33.333333333333336,0)" xlink:href="#t"/><use transform="matrix(0.06172839506172839,0,0,0.06172839506172839,45.67901234567901,0)" xlink:href="#u"/><use transform="matrix(0.06172839506172839,0,0,0.06172839506172839,58.02469135802469,0)" xlink:href="#v"/><use transform="matrix(0.06172839506172839,0,0,0.06172839506172839,65.37037037037037,0)" xlink:href="#w"/><use transform="matrix(0.06172839506172839,0,0,0.06172839506172839,70.24691358024691,0)" xlink:href="#x"/><use transform="matrix(0.06172839506172839,0,0,0.06172839506172839,81.35802469135803,0)" xlink:href="#y"/><use transform="matrix(0.06172839506172839,0,0,0.06172839506172839,93.70370370370371,0)" xlink:href="#s"/><use transform="matrix(0.06172839506172839,0,0,0.06172839506172839,99.87654320987654,0)" xlink:href="#w"/><use transform="matrix(0.06172839506172839,0,0,0.06172839506172839,104.75308641975309,0)" xlink:href="#u"/><use transform="matrix(0.06172839506172839,0,0,0.06172839506172839,117.09876543209877,0)" xlink:href="#z"/></g><path fill="#3a414a" d="M115-194c55 1 70 41 70 98S169 2 115 4C84 4 66-9 55-30l1 105H24l-1-265h31l2 30c10-21 28-34 59-34zm-8 174c40 0 45-34 45-75s-6-73-45-74c-42 0-51 32-51 76 0 43 10 73 51 73" id="A"/><path fill="#3a414a" d="M177-190C167-65 218 103 67 71c-23-6-38-20-44-43l32-5c15 47 100 32 89-28v-30C133-14 115 1 83 1 29 1 15-40 15-95c0-56 16-97 71-98 29-1 48 16 59 35 1-10 0-23 2-32h30zM94-22c36 0 50-32 50-73 0-42-14-75-50-75-39 0-46 34-46 75s6 73 46 73" id="B"/><g id="b"><use transform="matrix(0.06172839506172839,0,0,0.06172839506172839,0,0)" xlink:href="#A"/><use transform="matrix(0.06172839506172839,0,0,0.06172839506172839,12.345679012345679,0)" xlink:href="#u"/><use transform="matrix(0.06172839506172839,0,0,0.06172839506172839,24.691358024691358,0)" xlink:href="#x"/><use transform="matrix(0.06172839506172839,0,0,0.06172839506172839,35.80246913580247,0)" xlink:href="#s"/><use transform="matrix(0.06172839506172839,0,0,0.06172839506172839,41.97530864197531,0)" xlink:href="#w"/><use transform="matrix(0.06172839506172839,0,0,0.06172839506172839,46.851851851851855,0)" xlink:href="#z"/><use transform="matrix(0.06172839506172839,0,0,0.06172839506172839,59.19753086419753,0)" xlink:href="#B"/></g><path fill="#fff" d="M147 0H94L2-248h55l64 206c17-72 42-137 63-206h54" id="C"/><path fill="#fff" d="M199 0l-22-63H83L61 0H9l90-248h61L250 0h-51zm-33-102l-36-108c-10 38-24 72-36 108h72" id="D"/><path fill="#fff" d="M238-95c0 69-44 99-111 99C63 4 22-25 22-93v-155h51v151c-1 38 19 59 55 60 90 1 49-130 58-211h52v153" id="E"/><path fill="#fff" d="M24 0v-248h52v208h133V0H24" id="F"/><path fill="#fff" d="M136-208V0H84v-208H4v-40h212v40h-80" id="G"/><g id="c"><use transform="matrix(0.03703703703703702,0,0,0.03703703703703702,0,0)" xlink:href="#C"/><use transform="matrix(0.03703703703703702,0,0,0.03703703703703702,7.888888888888886,0)" xlink:href="#D"/><use transform="matrix(0.03703703703703702,0,0,0.03703703703703702,17.481481481481474,0)" xlink:href="#E"/><use transform="matrix(0.03703703703703702,0,0,0.03703703703703702,27.074074074074062,0)" xlink:href="#F"/><use transform="matrix(0.03703703703703702,0,0,0.03703703703703702,34.18518518518517,0)" xlink:href="#G"/></g><path fill="#fff" d="M67-125c0 53 21 87 73 88 37 1 54-22 65-47l45 17C233-25 199 4 140 4 58 4 20-42 15-125 8-235 124-281 211-232c18 10 29 29 36 50l-46 12c-8-25-30-41-62-41-52 0-71 34-72 86" id="H"/><path fill="#fff" d="M140-251c80 0 125 45 125 126S219 4 139 4C58 4 15-44 15-125s44-126 125-126zm-1 214c52 0 73-35 73-88 0-50-21-86-72-86-52 0-73 35-73 86s22 88 72 88" id="I"/><path fill="#fff" d="M240-174c0 40-23 61-54 70L253 0h-59l-57-94H76V0H24v-248c93 4 217-23 216 74zM76-134c48-2 112 12 112-38 0-48-66-32-112-35v73" id="J"/><path fill="#fff" d="M24 0v-248h195v40H76v63h132v40H76v65h150V0H24" id="K"/><g id="d"><use transform="matrix(0.03703703703703702,0,0,0.03703703703703702,0,0)" xlink:href="#H"/><use transform="matrix(0.03703703703703702,0,0,0.03703703703703702,9.592592592592588,0)" xlink:href="#I"/><use transform="matrix(0.03703703703703702,0,0,0.03703703703703702,19.962962962962955,0)" xlink:href="#J"/><use transform="matrix(0.03703703703703702,0,0,0.03703703703703702,29.555555555555543,0)" xlink:href="#K"/></g><path fill="#fff" d="M24-248c93 1 206-16 204 79-1 75-69 88-152 82V0H24v-248zm52 121c47 0 100 7 100-41 0-47-54-39-100-39v80" id="L"/><path fill="#fff" d="M146-102V0H94v-102L6-248h54l60 105 60-105h54" id="M"/><path fill="#fff" d="M230 0l2-204L168 0h-37L68-204 70 0H24v-248h70l56 185 57-185h69V0h-46" id="N"/><path fill="#fff" d="M175 0L67-191c6 58 2 128 3 191H24v-248h59L193-55c-6-58-2-129-3-193h46V0h-61" id="O"/><path fill="#fff" d="M169-182c-1-43-94-46-97-3 18 66 151 10 154 114 3 95-165 93-204 36-6-8-10-19-12-30l50-8c3 46 112 56 116 5-17-69-150-10-154-114-4-87 153-88 188-35 5 8 8 18 10 28" id="P"/><g id="e"><use transform="matrix(0.03703703703703702,0,0,0.03703703703703702,0,0)" xlink:href="#L"/><use transform="matrix(0.03703703703703702,0,0,0.03703703703703702,7.888888888888886,0)" xlink:href="#D"/><use transform="matrix(0.03703703703703702,0,0,0.03703703703703702,16.259259259259252,0)" xlink:href="#M"/><use transform="matrix(0.03703703703703702,0,0,0.03703703703703702,25.148148148148138,0)" xlink:href="#N"/><use transform="matrix(0.03703703703703702,0,0,0.03703703703703702,36.22222222222221,0)" xlink:href="#K"/><use transform="matrix(0.03703703703703702,0,0,0.03703703703703702,45.11111111111109,0)" xlink:href="#O"/><use transform="matrix(0.03703703703703702,0,0,0.03703703703703702,54.70370370370368,0)" xlink:href="#G"/><use transform="matrix(0.03703703703703702,0,0,0.03703703703703702,62.81481481481479,0)" xlink:href="#P"/></g><path fill="#3a414a" d="M24-248c93 1 206-16 204 79-1 75-69 88-152 82V0H24v-248zm52 121c47 0 100 7 100-41 0-47-54-39-100-39v80" id="Q"/><path fill="#3a414a" d="M199 0l-22-63H83L61 0H9l90-248h61L250 0h-51zm-33-102l-36-108c-10 38-24 72-36 108h72" id="R"/><path fill="#3a414a" d="M146-102V0H94v-102L6-248h54l60 105 60-105h54" id="S"/><path fill="#3a414a" d="M230 0l2-204L168 0h-37L68-204 70 0H24v-248h70l56 185 57-185h69V0h-46" id="T"/><path fill="#3a414a" d="M24 0v-248h195v40H76v63h132v40H76v65h150V0H24" id="U"/><path fill="#3a414a" d="M175 0L67-191c6 58 2 128 3 191H24v-248h59L193-55c-6-58-2-129-3-193h46V0h-61" id="V"/><path fill="#3a414a" d="M136-208V0H84v-208H4v-40h212v40h-80" id="W"/><path fill="#3a414a" d="M169-182c-1-43-94-46-97-3 18 66 151 10 154 114 3 95-165 93-204 36-6-8-10-19-12-30l50-8c3 46 112 56 116 5-17-69-150-10-154-114-4-87 153-88 188-35 5 8 8 18 10 28" id="X"/><g id="f"><use transform="matrix(0.03703703703703702,0,0,0.03703703703703702,0,0)" xlink:href="#Q"/><use transform="matrix(0.03703703703703702,0,0,0.03703703703703702,7.888888888888886,0)" xlink:href="#R"/><use transform="matrix(0.03703703703703702,0,0,0.03703703703703702,16.259259259259252,0)" xlink:href="#S"/><use transform="matrix(0.03703703703703702,0,0,0.03703703703703702,25.148148148148138,0)" xlink:href="#T"/><use transform="matrix(0.03703703703703702,0,0,0.03703703703703702,36.22222222222221,0)" xlink:href="#U"/><use transform="matrix(0.03703703703703702,0,0,0.03703703703703702,45.11111111111109,0)" xlink:href="#V"/><use transform="matrix(0.03703703703703702,0,0,0.03703703703703702,54.70370370370368,0)" xlink:href="#W"/><use transform="matrix(0.03703703703703702,0,0,0.03703703703703702,62.81481481481479,0)" xlink:href="#X"/></g><path fill="#3a414a" d="M67-125c0 53 21 87 73 88 37 1 54-22 65-47l45 17C233-25 199 4 140 4 58 4 20-42 15-125 8-235 124-281 211-232c18 10 29 29 36 50l-46 12c-8-25-30-41-62-41-52 0-71 34-72 86" id="Y"/><path fill="#3a414a" d="M186 0v-106H76V0H24v-248h52v99h110v-99h50V0h-50" id="Z"/><g id="g"><use transform="matrix(0.03703703703703702,0,0,0.03703703703703702,0,0)" xlink:href="#X"/><use transform="matrix(0.03703703703703702,0,0,0.03703703703703702,8.888888888888886,0)" xlink:href="#Y"/><use transform="matrix(0.03703703703703702,0,0,0.03703703703703702,18.481481481481474,0)" xlink:href="#Z"/><use transform="matrix(0.03703703703703702,0,0,0.03703703703703702,28.074074074074062,0)" xlink:href="#U"/><use transform="matrix(0.03703703703703702,0,0,0.03703703703703702,36.96296296296295,0)" xlink:href="#T"/><use transform="matrix(0.03703703703703702,0,0,0.03703703703703702,48.03703703703702,0)" xlink:href="#U"/></g><path fill="#3a414a" d="M30-248c87 1 191-15 191 75 0 78-77 80-158 76V0H30v-248zm33 125c57 0 124 11 124-50 0-59-68-47-124-48v98" id="aa"/><path fill="#3a414a" d="M137-103V0h-34v-103L8-248h37l75 118 75-118h37" id="ab"/><path fill="#3a414a" d="M240 0l2-218c-23 76-54 145-80 218h-23L58-218 59 0H30v-248h44l77 211c21-75 51-140 76-211h43V0h-30" id="ac"/><path fill="#3a414a" d="M30 0v-248h187v28H63v79h144v27H63v87h162V0H30" id="ad"/><path fill="#3a414a" d="M190 0L58-211 59 0H30v-248h39L202-35l-2-213h31V0h-41" id="ae"/><path fill="#3a414a" d="M127-220V0H93v-220H8v-28h204v28h-85" id="af"/><g id="h"><use transform="matrix(0.06172839506172839,0,0,0.06172839506172839,0,0)" xlink:href="#aa"/><use transform="matrix(0.06172839506172839,0,0,0.06172839506172839,13.148148148148147,0)" xlink:href="#q"/><use transform="matrix(0.06172839506172839,0,0,0.06172839506172839,26.296296296296294,0)" xlink:href="#ab"/><use transform="matrix(0.06172839506172839,0,0,0.06172839506172839,41.11111111111111,0)" xlink:href="#ac"/><use transform="matrix(0.06172839506172839,0,0,0.06172839506172839,59.5679012345679,0)" xlink:href="#ad"/><use transform="matrix(0.06172839506172839,0,0,0.06172839506172839,74.38271604938271,0)" xlink:href="#ae"/><use transform="matrix(0.06172839506172839,0,0,0.06172839506172839,90.37037037037037,0)" xlink:href="#af"/></g><path fill="#3a414a" d="M185-189c-5-48-123-54-124 2 14 75 158 14 163 119 3 78-121 87-175 55-17-10-28-26-33-46l33-7c5 56 141 63 141-1 0-78-155-14-162-118-5-82 145-84 179-34 5 7 8 16 11 25" id="ag"/><path fill="#3a414a" d="M232-93c-1 65-40 97-104 97C67 4 28-28 28-90v-158h33c8 89-33 224 67 224 102 0 64-133 71-224h33v155" id="ah"/><path fill="#3a414a" d="M212-179c-10-28-35-45-73-45-59 0-87 40-87 99 0 60 29 101 89 101 43 0 62-24 78-52l27 14C228-24 195 4 139 4 59 4 22-46 18-125c-6-104 99-153 187-111 19 9 31 26 39 46" id="ai"/><g id="i"><use transform="matrix(0.06172839506172839,0,0,0.06172839506172839,0,0)" xlink:href="#ag"/><use transform="matrix(0.06172839506172839,0,0,0.06172839506172839,14.814814814814813,0)" xlink:href="#ah"/><use transform="matrix(0.06172839506172839,0,0,0.06172839506172839,30.80246913580247,0)" xlink:href="#ai"/><use transform="matrix(0.06172839506172839,0,0,0.06172839506172839,46.79012345679012,0)" xlink:href="#ai"/><use transform="matrix(0.06172839506172839,0,0,0.06172839506172839,62.77777777777777,0)" xlink:href="#ad"/><use transform="matrix(0.06172839506172839,0,0,0.06172839506172839,77.59259259259258,0)" xlink:href="#ag"/><use transform="matrix(0.06172839506172839,0,0,0.06172839506172839,92.40740740740739,0)" xlink:href="#ag"/></g><g id="j"><use transform="matrix(0.06172839506172839,0,0,0.06172839506172839,0,0)" xlink:href="#aa"/><use transform="matrix(0.06172839506172839,0,0,0.06172839506172839,13.148148148148147,0)" xlink:href="#q"/><use transform="matrix(0.06172839506172839,0,0,0.06172839506172839,26.296296296296294,0)" xlink:href="#ab"/><use transform="matrix(0.06172839506172839,0,0,0.06172839506172839,41.11111111111111,0)" xlink:href="#ac"/><use transform="matrix(0.06172839506172839,0,0,0.06172839506172839,59.5679012345679,0)" xlink:href="#ad"/><use transform="matrix(0.06172839506172839,0,0,0.06172839506172839,74.38271604938271,0)" xlink:href="#ae"/><use transform="matrix(0.06172839506172839,0,0,0.06172839506172839,90.37037037037037,0)" xlink:href="#af"/></g><path fill="#3a414a" d="M100-194c63 0 86 42 84 106H49c0 40 14 67 53 68 26 1 43-12 49-29l28 8c-11 28-37 45-77 45C44 4 14-33 15-96c1-61 26-98 85-98zm52 81c6-60-76-77-97-28-3 7-6 17-6 28h103" id="aj"/><path fill="#3a414a" d="M24 0v-261h32V0H24" id="ak"/><path fill="#3a414a" d="M210-169c-67 3-38 105-44 169h-31v-121c0-29-5-50-35-48C34-165 62-65 56 0H25l-1-190h30c1 10-1 24 2 32 10-44 99-50 107 0 11-21 27-35 58-36 85-2 47 119 55 194h-31v-121c0-29-5-49-35-48" id="al"/><g id="k"><use transform="matrix(0.06172839506172839,0,0,0.06172839506172839,0,0)" xlink:href="#ag"/><use transform="matrix(0.06172839506172839,0,0,0.06172839506172839,14.814814814814813,0)" xlink:href="#aj"/><use transform="matrix(0.06172839506172839,0,0,0.06172839506172839,27.160493827160494,0)" xlink:href="#s"/><use transform="matrix(0.06172839506172839,0,0,0.06172839506172839,33.333333333333336,0)" xlink:href="#s"/><use transform="matrix(0.06172839506172839,0,0,0.06172839506172839,39.50617283950618,0)" xlink:href="#ak"/><use transform="matrix(0.06172839506172839,0,0,0.06172839506172839,44.38271604938272,0)" xlink:href="#aj"/><use transform="matrix(0.06172839506172839,0,0,0.06172839506172839,56.7283950617284,0)" xlink:href="#al"/><use transform="matrix(0.06172839506172839,0,0,0.06172839506172839,75.18518518518519,0)" xlink:href="#aj"/><use transform="matrix(0.06172839506172839,0,0,0.06172839506172839,87.53086419753087,0)" xlink:href="#z"/><use transform="matrix(0.06172839506172839,0,0,0.06172839506172839,99.87654320987656,0)" xlink:href="#s"/></g><g id="l"><use transform="matrix(0.06172839506172839,0,0,0.06172839506172839,0,0)" xlink:href="#A"/><use transform="matrix(0.06172839506172839,0,0,0.06172839506172839,12.345679012345679,0)" xlink:href="#u"/><use transform="matrix(0.06172839506172839,0,0,0.06172839506172839,24.691358024691358,0)" xlink:href="#x"/><use transform="matrix(0.06172839506172839,0,0,0.06172839506172839,35.80246913580247,0)" xlink:href="#s"/><use transform="matrix(0.06172839506172839,0,0,0.06172839506172839,41.97530864197531,0)" xlink:href="#w"/><use transform="matrix(0.06172839506172839,0,0,0.06172839506172839,46.851851851851855,0)" xlink:href="#z"/><use transform="matrix(0.06172839506172839,0,0,0.06172839506172839,59.19753086419753,0)" xlink:href="#B"/></g><path fill="#333" d="M199 0l-22-63H83L61 0H9l90-248h61L250 0h-51zm-33-102l-36-108c-10 38-24 72-36 108h72" id="am"/><use transform="matrix(0.06172839506172839,0,0,0.06172839506172839,0,0)" xlink:href="#am" id="m"/><path fill="#333" d="M182-130c37 4 62 22 62 59C244 23 116-4 24 0v-248c84 5 203-23 205 63 0 31-19 50-47 55zM76-148c40-3 101 13 101-30 0-44-60-28-101-31v61zm0 110c48-3 116 14 116-37 0-48-69-32-116-35v72" id="an"/><use transform="matrix(0.06172839506172839,0,0,0.06172839506172839,0,0)" xlink:href="#an" id="n"/><path fill="#333" d="M67-125c0 53 21 87 73 88 37 1 54-22 65-47l45 17C233-25 199 4 140 4 58 4 20-42 15-125 8-235 124-281 211-232c18 10 29 29 36 50l-46 12c-8-25-30-41-62-41-52 0-71 34-72 86" id="ao"/><use transform="matrix(0.06172839506172839,0,0,0.06172839506172839,0,0)" xlink:href="#ao" id="o"/><path fill="#333" d="M24-248c120-7 223 5 221 122C244-46 201 0 124 0H24v-248zM76-40c74 7 117-18 117-86 0-67-45-88-117-82v168" id="ap"/><use transform="matrix(0.06172839506172839,0,0,0.06172839506172839,0,0)" xlink:href="#ap" id="p"/></defs></g></svg>