<!DOCTYPE svg PUBLIC "-//W3C//DTD SVG 1.1//EN" "http://www.w3.org/Graphics/SVG/1.1/DTD/svg11.dtd">
<svg xmlns="http://www.w3.org/2000/svg" xmlns:xlink="http://www.w3.org/1999/xlink" style="background: #ffffff; background-color: #ffffff; color-scheme: light;" version="1.1" width="673px" height="406px" viewBox="-0.5 -0.5 673 406"><defs/><rect fill="#ffffff" width="100%" height="100%" x="0" y="0" style="fill: rgb(255, 255, 255);"/><g><g data-cell-id="0"><g data-cell-id="1"><g data-cell-id="2"><g><rect x="368" y="177" width="58" height="38" fill="none" stroke="none" pointer-events="all"/></g><g data-cell-id="3"><g/></g><g data-cell-id="4"><g><rect x="368" y="176.9" width="59.06" height="38.1" fill="none" stroke="none" pointer-events="all"/></g><g><g transform="translate(-0.5 -0.5)"><switch><foreignObject style="overflow: visible; text-align: left;" pointer-events="none" width="100%" height="100%" requiredFeatures="http://www.w3.org/TR/SVG11/feature#Extensibility"><div xmlns="http://www.w3.org/1999/xhtml" style="display: flex; align-items: unsafe center; justify-content: unsafe center; width: 61px; height: 1px; padding-top: 196px; margin-left: 367px;"><div style="box-sizing: border-box; font-size: 0; text-align: center; width: 59px; max-height: 38px; overflow: hidden; color: #000000; "><div style="display: inline-block; font-size: 12px; font-family: &quot;Helvetica&quot;; color: #000000; line-height: 1.2; pointer-events: all; width: 100%; white-space: normal; word-wrap: normal; "><div style="font-size: 1px"><p style="text-align:center;margin-left:0;margin-right:0;margin-top:0px;margin-bottom:0px;text-indent:0;vertical-align:middle;direction:ltr;"><font style="font-size: 11.29px; font-family: Arial; color: light-dark(rgb(58, 65, 74), rgb(177, 183, 190)); direction: ltr; letter-spacing: 0px; line-height: 100%; opacity: 1;"><b>Key</b></font></p></div></div></div></div></foreignObject><text x="398" y="200" fill="light-dark(#000000, #ffffff)" font-family="&quot;Helvetica&quot;" font-size="12px" text-anchor="middle">Key</text></switch></g></g></g></g><g data-cell-id="5"><g><rect x="0" y="0" width="136" height="50" rx="7.5" ry="7.5" fill="none" stroke="none" pointer-events="all"/></g><g data-cell-id="6"><g><path d="M 0 3.75 C -0.24 2.7 0.08 1.61 0.85 0.85 C 1.62 0.09 2.73 -0.23 3.79 0 L 132.22 0 C 134.22 0.21 135.8 1.77 136 3.75 L 136.01 46.25 C 135.72 48.19 134.17 49.71 132.21 50 L 3.79 50 C 2.75 51.04 1.05 51.04 0 50 C -1.05 48.96 -1.05 47.29 0 46.25 L 0 3.75" fill="#7c36ff" stroke="#ffffff" stroke-miterlimit="10" pointer-events="all" style="fill: rgb(124, 54, 255); stroke: rgb(255, 255, 255);"/></g></g><g data-cell-id="7"><g><rect x="7.62" y="6.82" width="121.29" height="35.56" rx="5.33" ry="5.33" fill="none" stroke="none" pointer-events="all"/></g><g><g transform="translate(-0.5 -0.5)"><switch><foreignObject style="overflow: visible; text-align: left;" pointer-events="none" width="100%" height="100%" requiredFeatures="http://www.w3.org/TR/SVG11/feature#Extensibility"><div xmlns="http://www.w3.org/1999/xhtml" style="display: flex; align-items: unsafe center; justify-content: unsafe center; width: 123px; height: 1px; padding-top: 25px; margin-left: 7px;"><div style="box-sizing: border-box; font-size: 0; text-align: center; width: 121px; max-height: 36px; overflow: hidden; color: #000000; "><div style="display: inline-block; font-size: 12px; font-family: &quot;Helvetica&quot;; color: #000000; line-height: 1.2; pointer-events: all; width: 100%; white-space: normal; word-wrap: normal; "><div style="font-size: 1px"><p style="text-align:center;margin-left:0;margin-right:0;margin-top:0px;margin-bottom:0px;text-indent:0;vertical-align:middle;direction:ltr;"><font style="font-size: 8.47px; font-family: Arial; color: light-dark(rgb(255, 255, 255), rgb(18, 18, 18)); direction: ltr; letter-spacing: 0px; line-height: 100%; opacity: 1;"><b>PENDING</b></font></p></div></div></div></div></foreignObject><text x="68" y="28" fill="light-dark(#000000, #ffffff)" font-family="&quot;Helvetica&quot;" font-size="12px" text-anchor="middle">PENDING</text></switch></g></g></g></g><g data-cell-id="8"><g><rect x="0" y="177" width="136" height="50" rx="7.5" ry="7.5" fill="none" stroke="none" pointer-events="all"/></g><g data-cell-id="9"><g><path d="M 0 180.75 C -0.24 179.7 0.08 178.61 0.85 177.85 C 1.62 177.09 2.73 176.77 3.79 177 L 132.22 177 C 134.22 177.21 135.8 178.77 136 180.75 L 136.01 223.25 C 135.72 225.19 134.17 226.71 132.21 227 L 3.79 227 C 2.75 228.04 1.05 228.04 0 227 C -1.05 225.96 -1.05 224.29 0 223.25 L 0 180.75" fill="#7c36ff" stroke="#ffffff" stroke-miterlimit="10" pointer-events="all" style="fill: rgb(124, 54, 255); stroke: rgb(255, 255, 255);"/></g></g><g data-cell-id="10"><g><rect x="7.62" y="183.82" width="121.29" height="35.56" rx="5.33" ry="5.33" fill="none" stroke="none" pointer-events="all"/></g><g><g transform="translate(-0.5 -0.5)"><switch><foreignObject style="overflow: visible; text-align: left;" pointer-events="none" width="100%" height="100%" requiredFeatures="http://www.w3.org/TR/SVG11/feature#Extensibility"><div xmlns="http://www.w3.org/1999/xhtml" style="display: flex; align-items: unsafe center; justify-content: unsafe center; width: 123px; height: 1px; padding-top: 202px; margin-left: 7px;"><div style="box-sizing: border-box; font-size: 0; text-align: center; width: 121px; max-height: 36px; overflow: hidden; color: #000000; "><div style="display: inline-block; font-size: 12px; font-family: &quot;Helvetica&quot;; color: #000000; line-height: 1.2; pointer-events: all; width: 100%; white-space: normal; word-wrap: normal; "><div style="font-size: 1px"><p style="text-align:center;margin-left:0;margin-right:0;margin-top:0px;margin-bottom:0px;text-indent:0;vertical-align:middle;direction:ltr;"><font style="font-size: 8.47px; font-family: Arial; color: light-dark(rgb(255, 255, 255), rgb(18, 18, 18)); direction: ltr; letter-spacing: 0px; line-height: 100%; opacity: 1;"><b>OPEN</b></font></p></div></div></div></div></foreignObject><text x="68" y="205" fill="light-dark(#000000, #ffffff)" font-family="&quot;Helvetica&quot;" font-size="12px" text-anchor="middle">OPEN</text></switch></g></g></g></g><g data-cell-id="11"><g><rect x="381" y="0" width="136" height="50" rx="7.5" ry="7.5" fill="none" stroke="none" pointer-events="all"/></g><g data-cell-id="12"><g><path d="M 381 3.75 C 380.76 2.7 381.08 1.61 381.85 0.85 C 382.62 0.09 383.73 -0.23 384.79 0 L 513.22 0 C 515.22 0.21 516.8 1.77 517 3.75 L 517.01 46.25 C 516.72 48.19 515.17 49.71 513.21 50 L 384.79 50 C 383.75 51.04 382.05 51.04 381 50 C 379.95 48.96 379.95 47.29 381 46.25 L 381 3.75" fill="#7c36ff" stroke="#ffffff" stroke-miterlimit="10" pointer-events="all" style="fill: rgb(124, 54, 255); stroke: rgb(255, 255, 255);"/></g></g><g data-cell-id="13"><g><rect x="388.62" y="6.82" width="121.29" height="35.56" rx="5.33" ry="5.33" fill="none" stroke="none" pointer-events="all"/></g><g><g transform="translate(-0.5 -0.5)"><switch><foreignObject style="overflow: visible; text-align: left;" pointer-events="none" width="100%" height="100%" requiredFeatures="http://www.w3.org/TR/SVG11/feature#Extensibility"><div xmlns="http://www.w3.org/1999/xhtml" style="display: flex; align-items: unsafe center; justify-content: unsafe center; width: 123px; height: 1px; padding-top: 25px; margin-left: 388px;"><div style="box-sizing: border-box; font-size: 0; text-align: center; width: 121px; max-height: 36px; overflow: hidden; color: #000000; "><div style="display: inline-block; font-size: 12px; font-family: &quot;Helvetica&quot;; color: #000000; line-height: 1.2; pointer-events: all; width: 100%; white-space: normal; word-wrap: normal; "><div style="font-size: 1px"><p style="text-align:center;margin-left:0;margin-right:0;margin-top:0px;margin-bottom:0px;text-indent:0;vertical-align:middle;direction:ltr;"><font style="font-size: 8.47px; font-family: Arial; color: light-dark(rgb(255, 255, 255), rgb(18, 18, 18)); direction: ltr; letter-spacing: 0px; line-height: 100%; opacity: 1;"><b>CANCELLED</b></font></p></div></div></div></div></foreignObject><text x="449" y="28" fill="light-dark(#000000, #ffffff)" font-family="&quot;Helvetica&quot;" font-size="12px" text-anchor="middle">CANCELLED</text></switch></g></g></g></g><g data-cell-id="14"><g><rect x="0" y="355" width="136" height="50" rx="7.5" ry="7.5" fill="none" stroke="none" pointer-events="all"/></g><g data-cell-id="15"><g><path d="M 0 358.75 C -0.24 357.7 0.08 356.61 0.85 355.85 C 1.62 355.09 2.73 354.77 3.79 355 L 132.22 355 C 134.22 355.21 135.8 356.77 136 358.75 L 136.01 401.25 C 135.72 403.19 134.17 404.71 132.21 405 L 3.79 405 C 2.75 406.04 1.05 406.04 0 405 C -1.05 403.96 -1.05 402.29 0 401.25 L 0 358.75" fill="#7c36ff" stroke="#ffffff" stroke-miterlimit="10" pointer-events="all" style="fill: rgb(124, 54, 255); stroke: rgb(255, 255, 255);"/></g></g><g data-cell-id="16"><g><rect x="7.62" y="361.82" width="121.29" height="35.56" rx="5.33" ry="5.33" fill="none" stroke="none" pointer-events="all"/></g><g><g transform="translate(-0.5 -0.5)"><switch><foreignObject style="overflow: visible; text-align: left;" pointer-events="none" width="100%" height="100%" requiredFeatures="http://www.w3.org/TR/SVG11/feature#Extensibility"><div xmlns="http://www.w3.org/1999/xhtml" style="display: flex; align-items: unsafe center; justify-content: unsafe center; width: 123px; height: 1px; padding-top: 380px; margin-left: 7px;"><div style="box-sizing: border-box; font-size: 0; text-align: center; width: 121px; max-height: 36px; overflow: hidden; color: #000000; "><div style="display: inline-block; font-size: 12px; font-family: &quot;Helvetica&quot;; color: #000000; line-height: 1.2; pointer-events: all; width: 100%; white-space: normal; word-wrap: normal; "><div style="font-size: 1px"><p style="text-align:center;margin-left:0;margin-right:0;margin-top:0px;margin-bottom:0px;text-indent:0;vertical-align:middle;direction:ltr;"><font style="font-size: 8.47px; font-family: Arial; color: light-dark(rgb(255, 255, 255), rgb(18, 18, 18)); direction: ltr; letter-spacing: 0px; line-height: 100%; opacity: 1;"><b>CLOSED</b></font></p></div></div></div></div></foreignObject><text x="68" y="383" fill="light-dark(#000000, #ffffff)" font-family="&quot;Helvetica&quot;" font-size="12px" text-anchor="middle">CLOSED</text></switch></g></g></g></g><g data-cell-id="17"><g><rect x="0" y="88" width="136" height="50" rx="7.5" ry="7.5" fill="none" stroke="none" pointer-events="all"/></g><g data-cell-id="18"><g><path d="M 0 91.75 C -0.24 90.7 0.08 89.61 0.85 88.85 C 1.62 88.09 2.73 87.77 3.79 88 L 132.22 88 C 134.22 88.21 135.8 89.77 136 91.75 L 136.01 134.25 C 135.72 136.19 134.17 137.71 132.21 138 L 3.79 138 C 2.75 139.04 1.05 139.04 0 138 C -1.05 136.96 -1.05 135.29 0 134.25 L 0 91.75" fill="#009eff" stroke="#ffffff" stroke-miterlimit="10" pointer-events="all" style="fill: rgb(0, 158, 255); stroke: rgb(255, 255, 255);"/></g></g><g data-cell-id="19"><g><rect x="7.62" y="94.82" width="121.29" height="35.56" rx="5.33" ry="5.33" fill="none" stroke="none" pointer-events="all"/></g><g><g transform="translate(-0.5 -0.5)"><switch><foreignObject style="overflow: visible; text-align: left;" pointer-events="none" width="100%" height="100%" requiredFeatures="http://www.w3.org/TR/SVG11/feature#Extensibility"><div xmlns="http://www.w3.org/1999/xhtml" style="display: flex; align-items: unsafe center; justify-content: unsafe center; width: 123px; height: 1px; padding-top: 113px; margin-left: 7px;"><div style="box-sizing: border-box; font-size: 0; text-align: center; width: 121px; max-height: 36px; overflow: hidden; color: #000000; "><div style="display: inline-block; font-size: 12px; font-family: &quot;Helvetica&quot;; color: #000000; line-height: 1.2; pointer-events: all; width: 100%; white-space: normal; word-wrap: normal; "><div style="font-size: 1px"><p style="text-align:center;margin-left:0;margin-right:0;margin-top:0px;margin-bottom:0px;text-indent:0;vertical-align:middle;direction:ltr;"><font style="font-size: 8.47px; font-family: Arial; color: light-dark(rgb(255, 255, 255), rgb(18, 18, 18)); direction: ltr; letter-spacing: 0px; line-height: 100%; opacity: 1;"><b>OPENING</b></font></p></div></div></div></div></foreignObject><text x="68" y="116" fill="light-dark(#000000, #ffffff)" font-family="&quot;Helvetica&quot;" font-size="12px" text-anchor="middle">OPENING</text></switch></g></g></g></g><g data-cell-id="20"><g><rect x="0" y="266" width="136" height="50" rx="7.5" ry="7.5" fill="none" stroke="none" pointer-events="all"/></g><g data-cell-id="21"><g><path d="M 0 269.75 C -0.24 268.7 0.08 267.61 0.85 266.85 C 1.62 266.09 2.73 265.77 3.79 266 L 132.22 266 C 134.22 266.21 135.8 267.77 136 269.75 L 136.01 312.25 C 135.72 314.19 134.17 315.71 132.21 316 L 3.79 316 C 2.75 317.04 1.05 317.04 0 316 C -1.05 314.96 -1.05 313.29 0 312.25 L 0 269.75" fill="#009eff" stroke="#ffffff" stroke-miterlimit="10" pointer-events="all" style="fill: rgb(0, 158, 255); stroke: rgb(255, 255, 255);"/></g></g><g data-cell-id="22"><g><rect x="7.62" y="272.82" width="121.29" height="35.56" rx="5.33" ry="5.33" fill="none" stroke="none" pointer-events="all"/></g><g><g transform="translate(-0.5 -0.5)"><switch><foreignObject style="overflow: visible; text-align: left;" pointer-events="none" width="100%" height="100%" requiredFeatures="http://www.w3.org/TR/SVG11/feature#Extensibility"><div xmlns="http://www.w3.org/1999/xhtml" style="display: flex; align-items: unsafe center; justify-content: unsafe center; width: 123px; height: 1px; padding-top: 291px; margin-left: 7px;"><div style="box-sizing: border-box; font-size: 0; text-align: center; width: 121px; max-height: 36px; overflow: hidden; color: #000000; "><div style="display: inline-block; font-size: 12px; font-family: &quot;Helvetica&quot;; color: #000000; line-height: 1.2; pointer-events: all; width: 100%; white-space: normal; word-wrap: normal; "><div style="font-size: 1px"><p style="text-align:center;margin-left:0;margin-right:0;margin-top:0px;margin-bottom:0px;text-indent:0;vertical-align:middle;direction:ltr;"><font style="font-size: 8.47px; font-family: Arial; color: light-dark(rgb(255, 255, 255), rgb(18, 18, 18)); direction: ltr; letter-spacing: 0px; line-height: 100%; opacity: 1;"><b>CLOSING</b></font></p></div></div></div></div></foreignObject><text x="68" y="294" fill="light-dark(#000000, #ffffff)" font-family="&quot;Helvetica&quot;" font-size="12px" text-anchor="middle">CLOSING</text></switch></g></g></g></g><g data-cell-id="23"><g><rect x="190" y="88" width="136" height="50" rx="7.5" ry="7.5" fill="none" stroke="none" pointer-events="all"/></g><g data-cell-id="24"><g><path d="M 190 91.75 C 189.76 90.7 190.08 89.61 190.85 88.85 C 191.62 88.09 192.73 87.77 193.79 88 L 322.22 88 C 324.22 88.21 325.8 89.77 326 91.75 L 326.01 134.25 C 325.72 136.19 324.17 137.71 322.21 138 L 193.79 138 C 192.75 139.04 191.05 139.04 190 138 C 188.95 136.96 188.95 135.29 190 134.25 L 190 91.75" fill="#d9d9d9" stroke="#ffffff" stroke-miterlimit="10" pointer-events="all" style="fill: rgb(217, 217, 217); stroke: rgb(255, 255, 255);"/></g></g><g data-cell-id="25"><g><rect x="197.62" y="94.82" width="121.29" height="35.56" rx="5.33" ry="5.33" fill="none" stroke="none" pointer-events="all"/></g><g><g transform="translate(-0.5 -0.5)"><switch><foreignObject style="overflow: visible; text-align: left;" pointer-events="none" width="100%" height="100%" requiredFeatures="http://www.w3.org/TR/SVG11/feature#Extensibility"><div xmlns="http://www.w3.org/1999/xhtml" style="display: flex; align-items: unsafe center; justify-content: unsafe center; width: 123px; height: 1px; padding-top: 113px; margin-left: 197px;"><div style="box-sizing: border-box; font-size: 0; text-align: center; width: 121px; max-height: 36px; overflow: hidden; color: #000000; "><div style="display: inline-block; font-size: 12px; font-family: &quot;Helvetica&quot;; color: #000000; line-height: 1.2; pointer-events: all; width: 100%; white-space: normal; word-wrap: normal; "><div style="font-size: 1px"><p style="text-align:center;margin-left:0;margin-right:0;margin-top:0px;margin-bottom:0px;text-indent:0;vertical-align:middle;direction:ltr;"><font style="font-size: 8.47px; font-family: Arial; color: light-dark(rgb(58, 65, 74), rgb(177, 183, 190)); direction: ltr; letter-spacing: 0px; line-height: 100%; opacity: 1;"><b>PENDING_OPENING</b></font></p></div></div></div></div></foreignObject><text x="258" y="116" fill="light-dark(#000000, #ffffff)" font-family="&quot;Helvetica&quot;" font-size="12px" text-anchor="middle">PENDING_OPENING</text></switch></g></g></g></g><g data-cell-id="26"><g><rect x="190" y="266" width="136" height="50" rx="7.5" ry="7.5" fill="none" stroke="none" pointer-events="all"/></g><g data-cell-id="27"><g><path d="M 190 269.75 C 189.76 268.7 190.08 267.61 190.85 266.85 C 191.62 266.09 192.73 265.77 193.79 266 L 322.22 266 C 324.22 266.21 325.8 267.77 326 269.75 L 326.01 312.25 C 325.72 314.19 324.17 315.71 322.21 316 L 193.79 316 C 192.75 317.04 191.05 317.04 190 316 C 188.95 314.96 188.95 313.29 190 312.25 L 190 269.75" fill="#d9d9d9" stroke="#ffffff" stroke-miterlimit="10" pointer-events="all" style="fill: rgb(217, 217, 217); stroke: rgb(255, 255, 255);"/></g></g><g data-cell-id="28"><g><rect x="197.62" y="272.82" width="121.29" height="35.56" rx="5.33" ry="5.33" fill="none" stroke="none" pointer-events="all"/></g><g><g transform="translate(-0.5 -0.5)"><switch><foreignObject style="overflow: visible; text-align: left;" pointer-events="none" width="100%" height="100%" requiredFeatures="http://www.w3.org/TR/SVG11/feature#Extensibility"><div xmlns="http://www.w3.org/1999/xhtml" style="display: flex; align-items: unsafe center; justify-content: unsafe center; width: 123px; height: 1px; padding-top: 291px; margin-left: 197px;"><div style="box-sizing: border-box; font-size: 0; text-align: center; width: 121px; max-height: 36px; overflow: hidden; color: #000000; "><div style="display: inline-block; font-size: 12px; font-family: &quot;Helvetica&quot;; color: #000000; line-height: 1.2; pointer-events: all; width: 100%; white-space: normal; word-wrap: normal; "><div style="font-size: 1px"><p style="text-align:center;margin-left:0;margin-right:0;margin-top:0px;margin-bottom:0px;text-indent:0;vertical-align:middle;direction:ltr;"><font style="font-size: 8.47px; font-family: Arial; color: light-dark(rgb(58, 65, 74), rgb(177, 183, 190)); direction: ltr; letter-spacing: 0px; line-height: 100%; opacity: 1;"><b>PENDING_CLOSURE</b></font></p></div></div></div></div></foreignObject><text x="258" y="294" fill="light-dark(#000000, #ffffff)" font-family="&quot;Helvetica&quot;" font-size="12px" text-anchor="middle">PENDING_CLOSURE</text></switch></g></g></g></g><g data-cell-id="29"><g><rect x="426" y="215" width="246" height="38" fill="none" stroke="none" pointer-events="all"/></g><g data-cell-id="30"><g/></g><g data-cell-id="31"><g><rect x="426" y="214.9" width="246.38" height="38.1" fill="none" stroke="none" pointer-events="all"/></g><g><g transform="translate(-0.5 -0.5)"><switch><foreignObject style="overflow: visible; text-align: left;" pointer-events="none" width="100%" height="100%" requiredFeatures="http://www.w3.org/TR/SVG11/feature#Extensibility"><div xmlns="http://www.w3.org/1999/xhtml" style="display: flex; align-items: unsafe center; justify-content: unsafe flex-start; width: 248px; height: 1px; padding-top: 234px; margin-left: 426px;"><div style="box-sizing: border-box; font-size: 0; text-align: left; width: 246px; max-height: 38px; overflow: hidden; color: #000000; "><div style="display: inline-block; font-size: 12px; font-family: &quot;Helvetica&quot;; color: #000000; line-height: 1.2; pointer-events: all; width: 100%; white-space: normal; word-wrap: normal; "><div style="font-size: 1px"><p style="text-align:left;margin-left:0;margin-right:0;margin-top:0px;margin-bottom:0px;text-indent:0;vertical-align:middle;direction:ltr;"><font style="font-size: 11.29px; font-family: Arial; color: light-dark(rgb(58, 65, 74), rgb(177, 183, 190)); direction: ltr; letter-spacing: 0px; line-height: 100%; opacity: 1;">Statuses in both /v1/accounts and /v2/accounts</font></p></div></div></div></div></foreignObject><text x="426" y="238" fill="light-dark(#000000, #ffffff)" font-family="&quot;Helvetica&quot;" font-size="12px">Statuses in both /v1/accounts and /v2/acco...</text></switch></g></g></g></g><g data-cell-id="32"><g><rect x="385" y="265" width="25" height="25" rx="3.75" ry="3.75" fill="none" stroke="none" pointer-events="all"/></g><g data-cell-id="33"><g><path d="M 385 268.75 C 384.77 267.7 385.09 266.61 385.85 265.85 C 386.61 265.09 387.7 264.77 388.75 265 L 406.25 265 C 408.22 265.23 409.77 266.78 410 268.75 L 410 286.25 C 409.89 288.28 408.28 289.89 406.25 290 L 388.75 290 C 387.67 290.5 386.4 290.28 385.56 289.44 C 384.72 288.6 384.5 287.33 385 286.25 L 385 268.75" fill="#009eff" stroke="#ffffff" stroke-miterlimit="10" pointer-events="all" style="fill: rgb(0, 158, 255); stroke: rgb(255, 255, 255);"/></g></g></g><g data-cell-id="34"><g><rect x="385" y="222" width="25" height="25" rx="3.75" ry="3.75" fill="none" stroke="none" pointer-events="all"/></g><g data-cell-id="35"><g><path d="M 385 225.75 C 384.77 224.7 385.09 223.61 385.85 222.85 C 386.61 222.09 387.7 221.77 388.75 222 L 406.25 222 C 408.22 222.23 409.77 223.78 410 225.75 L 410 243.25 C 409.89 245.28 408.28 246.89 406.25 247 L 388.75 247 C 387.67 247.5 386.4 247.28 385.56 246.44 C 384.72 245.6 384.5 244.33 385 243.25 L 385 225.75" fill="#7c36ff" stroke="#ffffff" stroke-miterlimit="10" pointer-events="all" style="fill: rgb(124, 54, 255); stroke: rgb(255, 255, 255);"/></g></g></g><g data-cell-id="36"><g><rect x="426" y="259" width="246" height="38" fill="none" stroke="none" pointer-events="all"/></g><g data-cell-id="37"><g/></g><g data-cell-id="38"><g><rect x="426" y="258.9" width="246.38" height="38.1" fill="none" stroke="none" pointer-events="all"/></g><g><g transform="translate(-0.5 -0.5)"><switch><foreignObject style="overflow: visible; text-align: left;" pointer-events="none" width="100%" height="100%" requiredFeatures="http://www.w3.org/TR/SVG11/feature#Extensibility"><div xmlns="http://www.w3.org/1999/xhtml" style="display: flex; align-items: unsafe center; justify-content: unsafe flex-start; width: 248px; height: 1px; padding-top: 278px; margin-left: 426px;"><div style="box-sizing: border-box; font-size: 0; text-align: left; width: 246px; max-height: 38px; overflow: hidden; color: #000000; "><div style="display: inline-block; font-size: 12px; font-family: &quot;Helvetica&quot;; color: #000000; line-height: 1.2; pointer-events: all; width: 100%; white-space: normal; word-wrap: normal; "><div style="font-size: 1px"><p style="text-align:left;margin-left:0;margin-right:0;margin-top:0px;margin-bottom:0px;text-indent:0;vertical-align:middle;direction:ltr;"><font style="font-size: 11.29px; font-family: Arial; color: light-dark(rgb(58, 65, 74), rgb(177, 183, 190)); direction: ltr; letter-spacing: 0px; line-height: 100%; opacity: 1;">New statuses in v2 Streaming topic </font></p></div></div></div></div></foreignObject><text x="426" y="282" fill="light-dark(#000000, #ffffff)" font-family="&quot;Helvetica&quot;" font-size="12px">New statuses in v2 Streaming topic </text></switch></g></g></g></g><g data-cell-id="39"><g><rect x="385" y="313" width="25" height="25" rx="3.75" ry="3.75" fill="none" stroke="none" pointer-events="all"/></g><g data-cell-id="40"><g><path d="M 385 316.75 C 384.77 315.7 385.09 314.61 385.85 313.85 C 386.61 313.09 387.7 312.77 388.75 313 L 406.25 313 C 408.22 313.23 409.77 314.78 410 316.75 L 410 334.25 C 409.89 336.28 408.28 337.89 406.25 338 L 388.75 338 C 387.67 338.5 386.4 338.28 385.56 337.44 C 384.72 336.6 384.5 335.33 385 334.25 L 385 316.75" fill="#d9d9d9" stroke="#ffffff" stroke-miterlimit="10" pointer-events="all" style="fill: rgb(217, 217, 217); stroke: rgb(255, 255, 255);"/></g></g></g><g data-cell-id="41"><g><rect x="426" y="303" width="246" height="48" fill="none" stroke="none" pointer-events="all"/></g><g data-cell-id="42"><g/></g><g data-cell-id="43"><g><rect x="426" y="302.84" width="246.38" height="48.26" fill="none" stroke="none" pointer-events="all"/></g><g><g transform="translate(-0.5 -0.5)"><switch><foreignObject style="overflow: visible; text-align: left;" pointer-events="none" width="100%" height="100%" requiredFeatures="http://www.w3.org/TR/SVG11/feature#Extensibility"><div xmlns="http://www.w3.org/1999/xhtml" style="display: flex; align-items: unsafe center; justify-content: unsafe flex-start; width: 248px; height: 1px; padding-top: 327px; margin-left: 426px;"><div style="box-sizing: border-box; font-size: 0; text-align: left; width: 246px; max-height: 48px; overflow: hidden; color: #000000; "><div style="display: inline-block; font-size: 12px; font-family: &quot;Helvetica&quot;; color: #000000; line-height: 1.2; pointer-events: all; width: 100%; white-space: normal; word-wrap: normal; "><div style="font-size: 1px"><p style="text-align:left;margin-left:0;margin-right:0;margin-top:0px;margin-bottom:0px;text-indent:0;vertical-align:middle;direction:ltr;"><font style="font-size: 11.29px; font-family: Arial; color: light-dark(rgb(58, 65, 74), rgb(177, 183, 190)); direction: ltr; letter-spacing: 0px; line-height: 100%; opacity: 1;">/v1/accounts instigated events represented in v2 Streaming topic</font></p></div></div></div></div></foreignObject><text x="426" y="331" fill="light-dark(#000000, #ffffff)" font-family="&quot;Helvetica&quot;" font-size="12px">/v1/accounts instigated events represented...</text></switch></g></g></g></g><g data-cell-id="44"><g><path d="M 136 25 L 372.88 25" fill="none" stroke="#3a414a" stroke-miterlimit="10" pointer-events="stroke" style="stroke: rgb(58, 65, 74);"/><path d="M 378.88 25 L 372.88 28 L 372.88 22 Z" fill="#3a414a" stroke="#3a414a" stroke-miterlimit="10" pointer-events="all" style="fill: rgb(58, 65, 74); stroke: rgb(58, 65, 74);"/></g></g><g data-cell-id="45"><g><path d="M 68 51 L 68 80.88" fill="none" stroke="#3a414a" stroke-miterlimit="10" pointer-events="stroke" style="stroke: rgb(58, 65, 74);"/><path d="M 68 86.88 L 65 80.88 L 71 80.88 Z" fill="#3a414a" stroke="#3a414a" stroke-miterlimit="10" pointer-events="all" style="fill: rgb(58, 65, 74); stroke: rgb(58, 65, 74);"/></g></g><g data-cell-id="46"><g><path d="M 68 140 L 68 169.88" fill="none" stroke="#3a414a" stroke-miterlimit="10" pointer-events="stroke" style="stroke: rgb(58, 65, 74);"/><path d="M 68 175.88 L 65 169.88 L 71 169.88 Z" fill="#3a414a" stroke="#3a414a" stroke-miterlimit="10" pointer-events="all" style="fill: rgb(58, 65, 74); stroke: rgb(58, 65, 74);"/></g></g><g data-cell-id="47"><g><path d="M 68 228 L 68 258.88" fill="none" stroke="#3a414a" stroke-miterlimit="10" pointer-events="stroke" style="stroke: rgb(58, 65, 74);"/><path d="M 68 264.88 L 65 258.88 L 71 258.88 Z" fill="#3a414a" stroke="#3a414a" stroke-miterlimit="10" pointer-events="all" style="fill: rgb(58, 65, 74); stroke: rgb(58, 65, 74);"/></g></g><g data-cell-id="48"><g><path d="M 68 317 L 68 347.88" fill="none" stroke="#3a414a" stroke-miterlimit="10" pointer-events="stroke" style="stroke: rgb(58, 65, 74);"/><path d="M 68 353.88 L 65 347.88 L 71 347.88 Z" fill="#3a414a" stroke="#3a414a" stroke-miterlimit="10" pointer-events="all" style="fill: rgb(58, 65, 74); stroke: rgb(58, 65, 74);"/></g></g><g data-cell-id="49"><g><path d="M 136 35 L 247.98 35 Q 257.98 35 257.98 45 L 258 80.88" fill="none" stroke="#999999" stroke-miterlimit="10" pointer-events="stroke" style="stroke: rgb(153, 153, 153);"/><path d="M 258 86.88 L 255 80.88 L 261 80.88 Z" fill="#999999" stroke="#999999" stroke-miterlimit="10" pointer-events="all" style="fill: rgb(153, 153, 153); stroke: rgb(153, 153, 153);"/></g></g><g data-cell-id="50"><g><path d="M 258 140 L 258 193.19 Q 258 203.19 248 203.17 L 143.12 203.01" fill="none" stroke="#999999" stroke-miterlimit="10" pointer-events="stroke" style="stroke: rgb(153, 153, 153);"/><path d="M 137.12 203 L 143.12 200.01 L 143.11 206.01 Z" fill="#999999" stroke="#999999" stroke-miterlimit="10" pointer-events="all" style="fill: rgb(153, 153, 153); stroke: rgb(153, 153, 153);"/></g></g><g data-cell-id="51"><g><path d="M 82 228 L 82 237.37 Q 82 246.74 92 246.74 L 248.65 246.74 Q 258.65 246.74 258.45 252.81 L 258.24 258.89" fill="none" stroke="#999999" stroke-miterlimit="10" pointer-events="stroke" style="stroke: rgb(153, 153, 153);"/><path d="M 258.04 264.88 L 255.24 258.78 L 261.24 258.99 Z" fill="#999999" stroke="#999999" stroke-miterlimit="10" pointer-events="all" style="fill: rgb(153, 153, 153); stroke: rgb(153, 153, 153);"/></g></g><g data-cell-id="52"><g><path d="M 258 317 L 258 370.19 Q 258 380.19 248 380.26 L 143.12 380.95" fill="none" stroke="#999999" stroke-miterlimit="10" pointer-events="stroke" style="stroke: rgb(153, 153, 153);"/><path d="M 137.12 380.99 L 143.1 377.95 L 143.14 383.95 Z" fill="#999999" stroke="#999999" stroke-miterlimit="10" pointer-events="all" style="fill: rgb(153, 153, 153); stroke: rgb(153, 153, 153);"/></g></g></g></g></g></svg>