<svg xmlns="http://www.w3.org/2000/svg" xmlns:xlink="http://www.w3.org/1999/xlink" id="Layer_1" version="1.1" viewBox="0 0 960 235">
  <!-- Generator: Adobe Illustrator 30.2.1, SVG Export Plug-In . SVG Version: 2.1.1 Build 1)  -->
  <defs>
    <style>
      .st0, .st1, .st2, .st3 {
        fill: none;
      }

      .st4 {
        fill: #00caff;
      }

      .st4, .st5, .st6, .st7 {
        fill-rule: evenodd;
      }

      .st5 {
        fill: #06c;
      }

      .st8 {
        font-family: LabGrotesque-Medium, 'Lab Grotesque';
        font-size: 18px;
        font-weight: 500;
      }

      .st8, .st9 {
        isolation: isolate;
      }

      .st1 {
        stroke-linejoin: round;
      }

      .st1, .st2 {
        stroke-linecap: round;
      }

      .st1, .st2, .st3 {
        stroke: #fff;
        stroke-width: 2px;
      }

      .st10 {
        clip-path: url(#clippath-1);
      }

      .st11 {
        clip-path: url(#clippath-3);
      }

      .st12 {
        clip-path: url(#clippath-4);
      }

      .st13 {
        clip-path: url(#clippath-2);
      }

      .st14 {
        clip-path: url(#clippath-5);
      }

      .st6 {
        fill: #009eff;
      }

      .st2, .st3 {
        stroke-miterlimit: 10;
      }

      .st7 {
        fill-opacity: 0;
      }

      .st15 {
        clip-path: url(#clippath);
      }
    </style>
    <clipPath id="clippath">
      <rect class="st0" x="155.8" y="80.7" width="46.3" height="47"/>
    </clipPath>
    <clipPath id="clippath-1">
      <rect class="st0" x="155.8" y="80.7" width="46.3" height="47"/>
    </clipPath>
    <clipPath id="clippath-2">
      <rect class="st0" x="453.9" y="84.2" width="44.7" height="47"/>
    </clipPath>
    <clipPath id="clippath-3">
      <rect class="st0" x="453.9" y="84.2" width="44.7" height="47"/>
    </clipPath>
    <clipPath id="clippath-4">
      <rect class="st0" x="750" y="89.4" width="47" height="34.8"/>
    </clipPath>
    <clipPath id="clippath-5">
      <rect class="st0" x="750" y="89.4" width="47" height="34.8"/>
    </clipPath>
  </defs>
  <path class="st4" d="M137.6,107.7h0c0-22.9,18.5-41.4,41.4-41.4h0c11,0,21.5,4.4,29.3,12.1s12.1,18.3,12.1,29.3h0c0,22.9-18.5,41.4-41.4,41.4h0c-22.9,0-41.4-18.5-41.4-41.4h0Z"/>
  <path class="st5" d="M434.9,107.7h0c0-22.9,18.5-41.4,41.4-41.4h0c11,0,21.5,4.4,29.3,12.1s12.1,18.3,12.1,29.3h0c0,22.9-18.5,41.4-41.4,41.4h0c-22.9,0-41.4-18.5-41.4-41.4h0Z"/>
  <path class="st6" d="M732.1,107.7h0c0-22.9,18.5-41.4,41.4-41.4h0c11,0,21.5,4.4,29.3,12.1s12.1,18.3,12.1,29.3h0c0,22.9-18.5,41.4-41.4,41.4h0c-22.9,0-41.4-18.5-41.4-41.4h0Z"/>
  <path class="st7" d="M752.9,92.9h41.3v30.5h-41.3v-30.6h0Z"/>
  <g class="st9">
    <g class="st9">
      <g class="st9">
        <text class="st8" transform="translate(90.8 178.7)"><tspan x="0" y="0">Banking product layer</tspan></text>
      </g>
    </g>
  </g>
  <g class="st9">
    <g class="st9">
      <g class="st9">
        <text class="st8" transform="translate(413.6 178.7)"><tspan x="0" y="0">Capability layer</tspan></text>
      </g>
    </g>
  </g>
  <g class="st9">
    <g class="st9">
      <g class="st9">
        <text class="st8" transform="translate(728 178.7)"><tspan x="0" y="0">Cloud layer</tspan></text>
      </g>
    </g>
  </g>
  <g id="Artwork_322">
    <g class="st15">
      <g class="st10">
        <polygon class="st1" points="200.7 96.1 157.3 96.1 179 81.7 200.7 96.1"/>
        <path class="st1" d="M183.2,101.1v-2.5h-8.2v2.5h.8c.9,0,1.6.7,1.6,1.7v14.9c0,.9-.7,1.7-1.6,1.7h-.8v2.5h8.2v-2.5h-.8c-.9,0-1.6-.7-1.6-1.7v-14.9c0-.9.7-1.7,1.6-1.7h.8Z"/>
        <path class="st1" d="M197.1,101.1v-2.5h-8.2v2.5h.8c.9,0,1.6.7,1.6,1.7v14.9c0,.9-.7,1.7-1.6,1.7h-.8v2.5h8.2v-2.5h-.8c-.9,0-1.6-.7-1.6-1.7v-14.9c0-.9.7-1.7,1.6-1.7h.8Z"/>
        <path class="st1" d="M169.2,101.1v-2.5h-8.2v2.5h.8c.9,0,1.6.7,1.6,1.7v14.9c0,.9-.7,1.7-1.6,1.7h-.8v2.5h8.2v-2.5h-.8c-.9,0-1.6-.7-1.6-1.7v-14.9c0-.9.7-1.7,1.6-1.7h.8Z"/>
        <rect class="st1" x="156.8" y="124.2" width="44.3" height="2.5"/>
      </g>
    </g>
  </g>
  <g id="Artwork_388">
    <g class="st13">
      <g class="st11">
        <ellipse class="st3" cx="476.3" cy="93" rx="7.7" ry="7.8"/>
        <ellipse class="st3" cx="462.6" cy="119.1" rx="7.7" ry="7.8"/>
        <ellipse class="st3" cx="490" cy="119.1" rx="7.7" ry="7.8"/>
        <path class="st2" d="M466.2,95.6c-5.5,4.3-7.9,9.9-6.9,16.3"/>
        <polyline class="st1" points="461.7 95 466.4 95.4 466.1 100"/>
        <path class="st2" d="M493.5,108.9c-.6-7.1-3.8-12.2-9.6-14.8"/>
        <polyline class="st1" points="496.4 105.2 493.5 109.1 489.9 106.3"/>
        <path class="st2" d="M471.1,126.1c5,1.5,9.6,1.1,13.4-1.1"/>
        <polyline class="st1" points="473.2 130.2 470.8 126.1 474.5 123.6"/>
      </g>
    </g>
  </g>
  <g id="Artwork_316">
    <g class="st12">
      <g class="st14">
        <path class="st1" d="M756.3,106.6c-3.1,1.3-5.3,4.4-5.3,8s3.8,8.6,8.7,8.6h20.1c5.7,0,10.3-4.7,10.3-10.4s-4.7-10.3-10.4-10.3-1.8,0-2.6.3c-.6-4.1-4.3-7.4-8.6-7.4s-8.7,3.9-8.7,8.6,0,1.3.3,1.9"/>
        <path class="st1" d="M792.1,115.7c2.4-1.9,3.9-4.7,3.9-8,0-5.7-4.7-10.2-10.4-10.2s-1.8,0-2.6.3c-.6-4.1-4.3-7.4-8.6-7.4s-4.6.9-6.1,2.5"/>
      </g>
    </g>
  </g>
</svg>