<svg xmlns="http://www.w3.org/2000/svg" xmlns:xlink="http://www.w3.org/1999/xlink" xmlns:lucid="lucid" width="727" height="352"><g transform="translate(0 0)" lucid:page-tab-id="Q.EqgQGhvIcA"><path d="M0 0h1870.87v1322.84H0z" fill="#fff"/><path d="M40 52a6 6 0 0 1 6-6h148a6 6 0 0 1 6 6v88a6 6 0 0 1-6 6H46a6 6 0 0 1-6-6z" stroke="#fff" fill="#f4f4f4"/><use xlink:href="#a" transform="matrix(1,0,0,1,51.99999999999997,57.99999999999977) translate(36.962962962962976 41.541666666666664)"/><path d="M280 52a6 6 0 0 1 6-6h148a6 6 0 0 1 6 6v88a6 6 0 0 1-6 6H286a6 6 0 0 1-6-6z" stroke="#fff" fill="#00f1c8"/><use xlink:href="#b" transform="matrix(1,0,0,1,292,57.99999999999977) translate(43.61111111111112 41.541666666666664)"/><path d="M280 232a6 6 0 0 1 6-6h148a6 6 0 0 1 6 6v88a6 6 0 0 1-6 6H286a6 6 0 0 1-6-6z" stroke="#fff" fill="#fe89b4"/><use xlink:href="#c" transform="matrix(1,0,0,1,292,237.99999999999977) translate(40.277777777777786 41.541666666666664)"/><path d="M520 52a6 6 0 0 1 6-6h148a6 6 0 0 1 6 6v88a6 6 0 0 1-6 6H526a6 6 0 0 1-6-6z" stroke="#fff" fill="#009eff"/><use xlink:href="#d" transform="matrix(1,0,0,1,532,57.99999999999977) translate(26.59259259259261 41.541666666666664)"/><path d="M600 147v123a6 6 0 0 1-6 6H456.88" stroke="#3a414a" fill="none"/><path d="M600.5 147h-1v-.5h1z" stroke="#3a414a" stroke-width=".05" fill="#3a414a"/><path d="M442.12 276l14.26-4.63v9.26z" stroke="#3a414a" fill="#3a414a"/><path d="M360 147v62.12" stroke="#3a414a" fill="none"/><path d="M360.5 147h-1v-.5h1z" stroke="#3a414a" stroke-width=".05" fill="#3a414a"/><path d="M360 223.88l-4.63-14.26h9.26z" stroke="#3a414a" fill="#3a414a"/><path d="M519 74.86H456.88" stroke="#3a414a" fill="none"/><path d="M519.5 75.36h-.5v-1h.5z" stroke="#3a414a" stroke-width=".05" fill="#3a414a"/><path d="M442.12 74.85l14.26-4.64v9.28z" stroke="#3a414a" fill="#3a414a"/><path d="M441 116.42H503.12" stroke="#3a414a" fill="none"/><path d="M441 116.92h-.5v-1h.5z" stroke="#3a414a" stroke-width=".05" fill="#3a414a"/><path d="M517.88 116.43l-14.26 4.64v-9.27z" stroke="#3a414a" fill="#3a414a"/><path d="M201 96h62.12" stroke="#3a414a" fill="none"/><path d="M201 96.5h-.5v-1h.5z" stroke="#3a414a" stroke-width=".05" fill="#3a414a"/><path d="M277.88 96l-14.26 4.64v-9.28z" stroke="#3a414a" fill="#3a414a"/><path d="M120 147v123a6 6 0 0 0 6 6h137.12" stroke="#3a414a" fill="none"/><path d="M120.5 147h-1v-.5h1z" stroke="#3a414a" stroke-width=".05" fill="#3a414a"/><path d="M277.88 276l-14.26 4.63v-9.26z" stroke="#3a414a" fill="#3a414a"/><defs><path fill="#6f7681" d="M24 0v-248h52V0H24" id="e"/><path fill="#6f7681" d="M175 0L67-191c6 58 2 128 3 191H24v-248h59L193-55c-6-58-2-129-3-193h46V0h-61" id="f"/><path fill="#6f7681" d="M199 0l-22-63H83L61 0H9l90-248h61L250 0h-51zm-33-102l-36-108c-10 38-24 72-36 108h72" id="g"/><path fill="#6f7681" d="M67-125c0 53 21 87 73 88 37 1 54-22 65-47l45 17C233-25 199 4 140 4 58 4 20-42 15-125 8-235 124-281 211-232c18 10 29 29 36 50l-46 12c-8-25-30-41-62-41-52 0-71 34-72 86" id="h"/><path fill="#6f7681" d="M136-208V0H84v-208H4v-40h212v40h-80" id="i"/><path fill="#6f7681" d="M147 0H94L2-248h55l64 206c17-72 42-137 63-206h54" id="j"/><path fill="#6f7681" d="M24 0v-248h195v40H76v63h132v40H76v65h150V0H24" id="k"/><g id="a"><use transform="matrix(0.03703703703703702,0,0,0.03703703703703702,0,0)" xlink:href="#e"/><use transform="matrix(0.03703703703703702,0,0,0.03703703703703702,3.703703703703702,0)" xlink:href="#f"/><use transform="matrix(0.03703703703703702,0,0,0.03703703703703702,13.29629629629629,0)" xlink:href="#g"/><use transform="matrix(0.03703703703703702,0,0,0.03703703703703702,22.88888888888888,0)" xlink:href="#h"/><use transform="matrix(0.03703703703703702,0,0,0.03703703703703702,32.48148148148147,0)" xlink:href="#i"/><use transform="matrix(0.03703703703703702,0,0,0.03703703703703702,40.592592592592574,0)" xlink:href="#e"/><use transform="matrix(0.03703703703703702,0,0,0.03703703703703702,44.296296296296276,0)" xlink:href="#j"/><use transform="matrix(0.03703703703703702,0,0,0.03703703703703702,53.18518518518516,0)" xlink:href="#k"/></g><path fill="#3a414a" d="M199 0l-22-63H83L61 0H9l90-248h61L250 0h-51zm-33-102l-36-108c-10 38-24 72-36 108h72" id="l"/><path fill="#3a414a" d="M67-125c0 53 21 87 73 88 37 1 54-22 65-47l45 17C233-25 199 4 140 4 58 4 20-42 15-125 8-235 124-281 211-232c18 10 29 29 36 50l-46 12c-8-25-30-41-62-41-52 0-71 34-72 86" id="m"/><path fill="#3a414a" d="M136-208V0H84v-208H4v-40h212v40h-80" id="n"/><path fill="#3a414a" d="M24 0v-248h52V0H24" id="o"/><path fill="#3a414a" d="M147 0H94L2-248h55l64 206c17-72 42-137 63-206h54" id="p"/><path fill="#3a414a" d="M24 0v-248h195v40H76v63h132v40H76v65h150V0H24" id="q"/><g id="b"><use transform="matrix(0.03703703703703702,0,0,0.03703703703703702,0,0)" xlink:href="#l"/><use transform="matrix(0.03703703703703702,0,0,0.03703703703703702,9.592592592592588,0)" xlink:href="#m"/><use transform="matrix(0.03703703703703702,0,0,0.03703703703703702,19.185185185185176,0)" xlink:href="#n"/><use transform="matrix(0.03703703703703702,0,0,0.03703703703703702,27.296296296296283,0)" xlink:href="#o"/><use transform="matrix(0.03703703703703702,0,0,0.03703703703703702,30.999999999999986,0)" xlink:href="#p"/><use transform="matrix(0.03703703703703702,0,0,0.03703703703703702,39.88888888888887,0)" xlink:href="#q"/></g><path fill="#3a414a" d="M24 0v-248h52v208h133V0H24" id="r"/><path fill="#3a414a" d="M140-251c80 0 125 45 125 126S219 4 139 4C58 4 15-44 15-125s44-126 125-126zm-1 214c52 0 73-35 73-88 0-50-21-86-72-86-52 0-73 35-73 86s22 88 72 88" id="s"/><path fill="#3a414a" d="M169-182c-1-43-94-46-97-3 18 66 151 10 154 114 3 95-165 93-204 36-6-8-10-19-12-30l50-8c3 46 112 56 116 5-17-69-150-10-154-114-4-87 153-88 188-35 5 8 8 18 10 28" id="t"/><path fill="#3a414a" d="M24-248c120-7 223 5 221 122C244-46 201 0 124 0H24v-248zM76-40c74 7 117-18 117-86 0-67-45-88-117-82v168" id="u"/><g id="c"><use transform="matrix(0.03703703703703702,0,0,0.03703703703703702,0,0)" xlink:href="#m"/><use transform="matrix(0.03703703703703702,0,0,0.03703703703703702,9.592592592592588,0)" xlink:href="#r"/><use transform="matrix(0.03703703703703702,0,0,0.03703703703703702,17.703703703703695,0)" xlink:href="#s"/><use transform="matrix(0.03703703703703702,0,0,0.03703703703703702,28.074074074074062,0)" xlink:href="#t"/><use transform="matrix(0.03703703703703702,0,0,0.03703703703703702,36.96296296296295,0)" xlink:href="#q"/><use transform="matrix(0.03703703703703702,0,0,0.03703703703703702,45.85185185185183,0)" xlink:href="#u"/></g><path fill="#fff" d="M169-182c-1-43-94-46-97-3 18 66 151 10 154 114 3 95-165 93-204 36-6-8-10-19-12-30l50-8c3 46 112 56 116 5-17-69-150-10-154-114-4-87 153-88 188-35 5 8 8 18 10 28" id="v"/><path fill="#fff" d="M238-95c0 69-44 99-111 99C63 4 22-25 22-93v-155h51v151c-1 38 19 59 55 60 90 1 49-130 58-211h52v153" id="w"/><path fill="#fff" d="M24-248c93 1 206-16 204 79-1 75-69 88-152 82V0H24v-248zm52 121c47 0 100 7 100-41 0-47-54-39-100-39v80" id="x"/><path fill="#fff" d="M24 0v-248h195v40H76v63h132v40H76v65h150V0H24" id="y"/><path fill="#fff" d="M175 0L67-191c6 58 2 128 3 191H24v-248h59L193-55c-6-58-2-129-3-193h46V0h-61" id="z"/><path fill="#fff" d="M24-248c120-7 223 5 221 122C244-46 201 0 124 0H24v-248zM76-40c74 7 117-18 117-86 0-67-45-88-117-82v168" id="A"/><g id="d"><use transform="matrix(0.03703703703703702,0,0,0.03703703703703702,0,0)" xlink:href="#v"/><use transform="matrix(0.03703703703703702,0,0,0.03703703703703702,8.888888888888886,0)" xlink:href="#w"/><use transform="matrix(0.03703703703703702,0,0,0.03703703703703702,18.481481481481474,0)" xlink:href="#v"/><use transform="matrix(0.03703703703703702,0,0,0.03703703703703702,27.37037037037036,0)" xlink:href="#x"/><use transform="matrix(0.03703703703703702,0,0,0.03703703703703702,36.259259259259245,0)" xlink:href="#y"/><use transform="matrix(0.03703703703703702,0,0,0.03703703703703702,45.14814814814813,0)" xlink:href="#z"/><use transform="matrix(0.03703703703703702,0,0,0.03703703703703702,54.74074074074072,0)" xlink:href="#A"/><use transform="matrix(0.03703703703703702,0,0,0.03703703703703702,64.33333333333331,0)" xlink:href="#y"/><use transform="matrix(0.03703703703703702,0,0,0.03703703703703702,73.2222222222222,0)" xlink:href="#A"/></g></defs></g></svg>