<svg xmlns="http://www.w3.org/2000/svg" xmlns:xlink="http://www.w3.org/1999/xlink" xmlns:lucid="lucid" width="1230.56" height="481"><g transform="translate(2230.556108624687 -3160)" lucid:page-tab-id="0_0"><g filter="url(#a)"><path d="M-2194.8 3245a5 5 0 0 1 5-5h124.8a5 5 0 0 1 5 5v390a5 5 0 0 1-5 5h-124.8a5 5 0 0 1-5-5z" stroke="#000" stroke-width="2" fill="#d9d9d9"/><use xlink:href="#b" transform="matrix(1,0,0,1,-2189.7997646788485,3245) translate(34.72839506172839 202.36805555555554)"/></g><g filter="url(#c)"><path d="M-1860 3245a5 5 0 0 1 5-5h115.2a5 5 0 0 1 5 5v390a5 5 0 0 1-5 5H-1855a5 5 0 0 1-5-5z" stroke="#000" stroke-width="2" fill="#d9d9d9"/><use xlink:href="#d" transform="matrix(1,0,0,1,-1854.9999999999998,3245) translate(28.870370370370367 184.08680555555554)"/><use xlink:href="#e" transform="matrix(1,0,0,1,-1854.9999999999998,3245) translate(0.35185185185184054 216.35347222222225)"/></g><g filter="url(#f)"><path d="M-1440 3245a5 5 0 0 1 5-5h115.2a5 5 0 0 1 5 5v390a5 5 0 0 1-5 5H-1435a5 5 0 0 1-5-5z" stroke="#000" stroke-width="2" fill="#d9d9d9" fill-opacity=".57"/><use xlink:href="#g" transform="matrix(1,0,0,1,-1435,3245) translate(0.4876543209876587 202.83680555555554)"/></g><path d="M-1638.97 3326.75h-87.96v-1h87.96zm197.47 0h-94.33v-1h94.33z" stroke="#3a414a" stroke-width=".05" fill="#3a414a"/><path d="M-1441 3326.75h-.5v-1h.5z" fill="#3a414a"/><path d="M-1440.97 3326.78h-.57v-1.05h.57zm-.52-1v.95h.47v-.95z" stroke="#3a414a" stroke-width=".05" fill="#3a414a"/><path d="M-1719.9 3333.9l-12.92-7.65 12.9-7.63z" fill="#3a414a"/><path d="M-1719.4 3334.77l-14.4-8.52 14.4-8.5zm-12.43-8.52l11.42 6.76v-13.5z" stroke="#3a414a" stroke-width=".05" fill="#3a414a"/><use xlink:href="#h" transform="matrix(1,0,0,1,-1638.9739857397128,3312.9206746776576) translate(0 17.77777777777778)"/><path d="M-1694.8 3262.67a6 6 0 0 1 6-6h202.8a6 6 0 0 1 6 6v70a6 6 0 0 1-6 6h-202.8a6 6 0 0 1-6-6z" stroke="#000" stroke-opacity="0" fill="#fff" fill-opacity="0"/><use xlink:href="#i" transform="matrix(1,0,0,1,-1689.7997646788485,3261.6666666666665) translate(0 40.749964444444444)"/><use xlink:href="#j" transform="matrix(1,0,0,1,-1689.7997646788485,3261.6666666666665) translate(22.222172839506168 40.749964444444444)"/><use xlink:href="#k" transform="matrix(1,0,0,1,-1689.7997646788485,3261.6666666666665) translate(106.61087419753085 40.749964444444444)"/><path d="M-1638.97 3401.97h-94.33v-1h94.33zm191.1 0h-87.96v-1h87.96z" stroke="#3a414a" stroke-width=".05" fill="#3a414a"/><path d="M-1733.3 3401.97h-.5v-1h.5z" fill="#3a414a"/><path d="M-1733.26 3402h-.57v-1.06h.57zm-.52-1v.94h.47v-.95z" stroke="#3a414a" stroke-width=".05" fill="#3a414a"/><path d="M-1441.98 3401.47l-12.9 7.63v-15.27z" fill="#3a414a"/><path d="M-1441 3401.47l-14.4 8.5v-17.02zm-13.4 6.75l11.44-6.75-11.43-6.76z" stroke="#3a414a" stroke-width=".05" fill="#3a414a"/><use xlink:href="#l" transform="matrix(1,0,0,1,-1638.973966454784,3388.1318968294595) translate(0 17.77777777777778)"/><path d="M-1695.64 3354.33a6 6 0 0 1 6-6h202.8a6 6 0 0 1 6 6v51.34a6 6 0 0 1-6 6h-202.8a6 6 0 0 1-6-6z" stroke="#000" stroke-opacity="0" fill="#fff" fill-opacity="0"/><use xlink:href="#m" transform="matrix(1,0,0,1,-1690.6443060306183,3353.3333866666667) translate(4.222440617283979 29.499964444444444)"/><use xlink:href="#j" transform="matrix(1,0,0,1,-1690.6443060306183,3353.3333866666667) translate(26.444613456790147 29.499964444444444)"/><use xlink:href="#n" transform="matrix(1,0,0,1,-1690.6443060306183,3353.3333866666667) translate(110.83331481481483 29.499964444444444)"/><path d="M-2105 3246a6 6 0 0 1 6-6h178a6 6 0 0 1 6 6v51.33a6 6 0 0 1-6 6h-178a6 6 0 0 1-6-6z" stroke="#000" stroke-opacity="0" fill="#fff" fill-opacity="0"/><path d="M-1638.97 3562.6h-87.96v-1h87.96zm197.47 0h-94.33v-1h94.33z" stroke="#3a414a" stroke-width=".05" fill="#3a414a"/><path d="M-1441 3562.6h-.5v-1h.5z" fill="#3a414a"/><path d="M-1440.97 3562.6h-.57v-1.04h.57zm-.52-1v.96h.47v-.95z" stroke="#3a414a" stroke-width=".05" fill="#3a414a"/><path d="M-1719.9 3569.72l-12.92-7.63 12.9-7.65z" fill="#3a414a"/><path d="M-1719.4 3570.6l-14.4-8.5 14.4-8.53zm-12.43-8.5l11.42 6.74v-13.5z" stroke="#3a414a" stroke-width=".05" fill="#3a414a"/><use xlink:href="#l" transform="matrix(1,0,0,1,-1638.9739252701627,3548.751920112043) translate(0 17.77777777777778)"/><path d="M-2174.8 3546a6 6 0 0 1 6-6h202.8a6 6 0 0 1 6 6v51.33a6 6 0 0 1-6 6h-202.8a6 6 0 0 1-6-6zM-2230.56 3166a6 6 0 0 1 6-6h333.2a6 6 0 0 1 6 6v51.33a6 6 0 0 1-6 6h-333.2a6 6 0 0 1-6-6z" stroke="#000" stroke-opacity="0" fill="#fff" fill-opacity="0"/><use xlink:href="#o" transform="matrix(1,0,0,1,-2225.556108624687,3165) translate(35.65432098765433 31.27777777777778)"/><use xlink:href="#p" transform="matrix(1,0,0,1,-2225.556108624687,3165) translate(129.11111111111111 31.27777777777778)"/><use xlink:href="#q" transform="matrix(1,0,0,1,-2225.556108624687,3165) translate(207.87654320987656 31.27777777777778)"/><path d="M-1255.3 3328.93h-51.63" stroke="#3a414a" fill="none"/><path d="M-1254.8 3329.43h-.5v-1h.5z" stroke="#3a414a" stroke-width=".05" fill="#3a414a"/><path d="M-1312.82 3328.93l12.9-7.63v15.27z" stroke="#3a414a" fill="#3a414a"/><path d="M-1000.5 3328.93h-39M-1000.5 3328.93h.5" stroke="#3a414a" fill="none"/><path d="M-1039.5 3329.43h-.5v-1h.5z" stroke="#3a414a" stroke-width=".05" fill="#3a414a"/><path d="M-1254.8 3293.93a6 6 0 0 1 6-6h202.8a6 6 0 0 1 6 6v70a6 6 0 0 1-6 6h-202.8a6 6 0 0 1-6-6z" stroke="#000" stroke-opacity="0" fill="#fff" fill-opacity="0"/><use xlink:href="#r" transform="matrix(1,0,0,1,-1249.7997646788485,3292.9306696631247) translate(0 27.249964444444444)"/><use xlink:href="#s" transform="matrix(1,0,0,1,-1249.7997646788485,3292.9306696631247) translate(19.99995555555555 27.249964444444444)"/><use xlink:href="#t" transform="matrix(1,0,0,1,-1249.7997646788485,3292.9306696631247) translate(25.555498765432095 27.249964444444444)"/><use xlink:href="#u" transform="matrix(1,0,0,1,-1249.7997646788485,3292.9306696631247) translate(126.49971888888886 27.249964444444444)"/><use xlink:href="#v" transform="matrix(1,0,0,1,-1249.7997646788485,3292.9306696631247) translate(19.99995555555555 51.2499111111111)"/><use xlink:href="#w" transform="matrix(1,0,0,1,-1249.7997646788485,3292.9306696631247) translate(104.27754604938269 51.2499111111111)"/><path d="M-1860 3290.83a6 6 0 0 1 6-6h113.2a6 6 0 0 1 6 6v70a6 6 0 0 1-6 6H-1854a6 6 0 0 1-6-6z" stroke="#000" stroke-opacity="0" fill="#fff" fill-opacity="0"/><use xlink:href="#x" transform="matrix(1,0,0,1,-1855,3289.83344) translate(18.583420925925935 18.249964444444444)"/><use xlink:href="#y" transform="matrix(1,0,0,1,-1855,3289.83344) translate(36.97226895061729 42.2499111111111)"/><use xlink:href="#z" transform="matrix(1,0,0,1,-1855,3289.83344) translate(14.138986358024702 66.24985777777776)"/><path d="M-2139.5 3392.5l.07.9.2.83.33.8.45.73.56.65.67.57.73.46.8.33.84.2.88.07h266.1v1H-2134l-1-.08-1-.24-.93-.38-.87-.53-.78-.68-.66-.77-.53-.87-.38-.94-.24-1-.08-1v-54.25h1zm122.5-65.7h-42.8v-1h42.8zm155.5 0h-82.4v-1h82.4z" stroke="#3a414a" stroke-width=".05" fill="#3a414a"/><path d="M-1861 3326.8h-.5v-1h.5z" fill="#3a414a"/><path d="M-1860.97 3326.8h-.57v-1.04h.57zm-.52-1v.96h.47v-.95z" stroke="#3a414a" stroke-width=".05" fill="#3a414a"/><path d="M-1861.98 3398.53l-12.9 7.63v-15.27z" fill="#3a414a"/><path d="M-1861 3398.53l-14.4 8.5v-17.02zm-13.4 6.76l11.44-6.77-11.43-6.76z" stroke="#3a414a" stroke-width=".05" fill="#3a414a"/><use xlink:href="#A" transform="matrix(1,0,0,1,-2189.3530645603246,3314.2876623189354) translate(0 15.999999999999998)"/><use xlink:href="#B" transform="matrix(1,0,0,1,-2017.00159881962,3314.2876623189354) translate(0 16)"/><path d="M-2050 3487a6 6 0 0 1 6-6h93.44a6 6 0 0 1 6 6v22a6 6 0 0 1-6 6H-2044a6 6 0 0 1-6-6z" fill="#fff" fill-opacity="0"/><path d="M-2129.5 3603.98l.07.88.2.84.33.8.45.73.56.66.67.55.73.45.8.33.84.2.88.07h223.1l.1.1 32.9.1v1l-33.35-.1-.1-.1h-222.7l-1-.08-.98-.24-.95-.4-.87-.52-.78-.66-.66-.78-.53-.87-.38-.94-.24-.98-.08-1v-29.95h1zm125-43.35h-74.5v-1h74.5zm143 0h-69.9v-1h69.9z" stroke="#3a414a" stroke-width=".05" fill="#3a414a"/><path d="M-1861 3560.63h-.5v-1h.5z" fill="#3a414a"/><path d="M-1860.97 3560.65h-.57v-1.05h.57zm-.52-1v.95h.47v-.95z" stroke="#3a414a" stroke-width=".05" fill="#3a414a"/><path d="M-1861.98 3610.2l-12.9 7.62v-15.27z" fill="#3a414a"/><path d="M-1861 3610.2l-14.4 8.5v-17.02zm-13.4 6.75l11.44-6.76-11.43-6.77z" stroke="#3a414a" stroke-width=".05" fill="#3a414a"/><g><use xlink:href="#C" transform="matrix(1,0,0,1,-2181,3550.0671508124137) translate(0 15.999999999999998)"/></g><g><use xlink:href="#D" transform="matrix(1,0,0,1,-2004.5104853276807,3548.126474136695) translate(0 16)"/></g><path d="M-1220 3354.33a6 6 0 0 1 6-6h168a6 6 0 0 1 6 6v190a6 6 0 0 1-6 6h-168a6 6 0 0 1-6-6z" stroke="#000" stroke-opacity="0" fill="#fff" fill-opacity="0"/><g><use xlink:href="#E" transform="matrix(1,0,0,1,-1215,3353.3333866666667) translate(6.499999999999998 22)"/><use xlink:href="#F" transform="matrix(1,0,0,1,-1215,3353.3333866666667) translate(19.999999999999996 22)"/><use xlink:href="#E" transform="matrix(1,0,0,1,-1215,3353.3333866666667) translate(6.499999999999998 45.99999999999999)"/><use xlink:href="#G" transform="matrix(1,0,0,1,-1215,3353.3333866666667) translate(19.999999999999996 45.99999999999999)"/><use xlink:href="#H" transform="matrix(1,0,0,1,-1215,3353.3333866666667) translate(92.05555555555554 45.99999999999999)"/><use xlink:href="#I" transform="matrix(1,0,0,1,-1215,3353.3333866666667) translate(19.999999999999996 69.99999999999999)"/><use xlink:href="#J" transform="matrix(1,0,0,1,-1215,3353.3333866666667) translate(58.888888888888886 69.99999999999999)"/><use xlink:href="#E" transform="matrix(1,0,0,1,-1215,3353.3333866666667) translate(6.499999999999998 93.99999999999999)"/><use xlink:href="#K" transform="matrix(1,0,0,1,-1215,3353.3333866666667) translate(19.999999999999996 93.99999999999999)"/><use xlink:href="#E" transform="matrix(1,0,0,1,-1215,3353.3333866666667) translate(6.499999999999998 117.99999999999999)"/><use xlink:href="#L" transform="matrix(1,0,0,1,-1215,3353.3333866666667) translate(19.999999999999996 117.99999999999999)"/><use xlink:href="#E" transform="matrix(1,0,0,1,-1215,3353.3333866666667) translate(6.499999999999998 141.99999999999997)"/><use xlink:href="#M" transform="matrix(1,0,0,1,-1215,3353.3333866666667) translate(19.999999999999996 141.99999999999997)"/><use xlink:href="#E" transform="matrix(1,0,0,1,-1215,3353.3333866666667) translate(6.499999999999998 165.99999999999997)"/><use xlink:href="#N" transform="matrix(1,0,0,1,-1215,3353.3333866666667) translate(19.999999999999996 165.99999999999997)"/><use xlink:href="#H" transform="matrix(1,0,0,1,-1215,3353.3333866666667) translate(82.16666666666666 165.99999999999997)"/><use xlink:href="#I" transform="matrix(1,0,0,1,-1215,3353.3333866666667) translate(19.999999999999996 189.99999999999997)"/><use xlink:href="#O" transform="matrix(1,0,0,1,-1215,3353.3333866666667) translate(58.888888888888886 189.99999999999997)"/></g><path d="M-1713.24 3514.87a6 6 0 0 1 6-6h238a6 6 0 0 1 6 6v46a6 6 0 0 1-6 6h-238a6 6 0 0 1-6-6z" stroke="#000" stroke-opacity="0" fill="#fff" fill-opacity="0"/><g><use xlink:href="#P" transform="matrix(1,0,0,1,-1708.244423691194,3513.8680264610293) translate(10.166910740740775 27.999964444444444)"/><use xlink:href="#j" transform="matrix(1,0,0,1,-1708.244423691194,3513.8680264610293) translate(32.38908358024695 27.999964444444444)"/><use xlink:href="#Q" transform="matrix(1,0,0,1,-1708.244423691194,3513.8680264610293) translate(116.77778493827162 27.999964444444444)"/></g><path d="M-1695.64 3329.33a6 6 0 0 1 6-6h202.8a6 6 0 0 1 6 6v51.34a6 6 0 0 1-6 6h-202.8a6 6 0 0 1-6-6z" stroke="#000" stroke-opacity="0" fill="#fff" fill-opacity="0"/><defs><path fill="#0063cc" d="M67-125c0 53 21 87 73 88 37 1 54-22 65-47l45 17C233-25 199 4 140 4 58 4 20-42 15-125 8-235 124-281 211-232c18 10 29 29 36 50l-46 12c-8-25-30-41-62-41-52 0-71 34-72 86" id="R"/><path fill="#0063cc" d="M110-194c64 0 96 36 96 99 0 64-35 99-97 99-61 0-95-36-95-99 0-62 34-99 96-99zm-1 164c35 0 45-28 45-65 0-40-10-65-43-65-34 0-45 26-45 65 0 36 10 65 43 65" id="S"/><path fill="#0063cc" d="M135-150c-39-12-60 13-60 57V0H25l-1-190h47c2 13-1 29 3 40 6-28 27-53 61-41v41" id="T"/><path fill="#0063cc" d="M185-48c-13 30-37 53-82 52C43 2 14-33 14-96s30-98 90-98c62 0 83 45 84 108H66c0 31 8 55 39 56 18 0 30-7 34-22zm-45-69c5-46-57-63-70-21-2 6-4 13-4 21h74" id="U"/><g id="b"><use transform="matrix(0.06790123456790124,0,0,0.06790123456790124,0,0)" xlink:href="#R"/><use transform="matrix(0.06790123456790124,0,0,0.06790123456790124,17.58641975308642,0)" xlink:href="#S"/><use transform="matrix(0.06790123456790124,0,0,0.06790123456790124,32.45679012345679,0)" xlink:href="#T"/><use transform="matrix(0.06790123456790124,0,0,0.06790123456790124,41.96296296296296,0)" xlink:href="#U"/></g><filter id="a" filterUnits="objectBoundingBox" x="-.07" y="-.01" width="1.15" height="1.05"><feOffset result="offOut" in="SourceAlpha" dy="6"/><feGaussianBlur result="blurOut" in="offOut" stdDeviation="5"/><feColorMatrix result="colorOut" in="blurOut" values="0 0 0 0 0 0 0 0 0 0 0 0 0 0 0 0 0 0 0.16862745098039217 0"/><feBlend in="SourceGraphic" in2="colorOut"/></filter><path fill="#0063cc" d="M147 0H94L2-248h55l64 206c17-72 42-137 63-206h54" id="V"/><path fill="#0063cc" d="M133-34C117-15 103 5 69 4 32 3 11-16 11-54c-1-60 55-63 116-61 1-26-3-47-28-47-18 1-26 9-28 27l-52-2c7-38 36-58 82-57s74 22 75 68l1 82c-1 14 12 18 25 15v27c-30 8-71 5-69-32zm-48 3c29 0 43-24 42-57-32 0-66-3-65 30 0 17 8 27 23 27" id="W"/><path fill="#0063cc" d="M85 4C-2 5 27-109 22-190h50c7 57-23 150 33 157 60-5 35-97 40-157h50l1 190h-47c-2-12 1-28-3-38-12 25-28 42-61 42" id="X"/><path fill="#0063cc" d="M25 0v-261h50V0H25" id="Y"/><path fill="#0063cc" d="M115-3C79 11 28 4 28-45v-112H4v-33h27l15-45h31v45h36v33H77v99c-1 23 16 31 38 25v30" id="Z"/><g id="d"><use transform="matrix(0.06790123456790124,0,0,0.06790123456790124,0,0)" xlink:href="#V"/><use transform="matrix(0.06790123456790124,0,0,0.06790123456790124,14.938271604938272,0)" xlink:href="#W"/><use transform="matrix(0.06790123456790124,0,0,0.06790123456790124,28.51851851851852,0)" xlink:href="#X"/><use transform="matrix(0.06790123456790124,0,0,0.06790123456790124,43.38888888888889,0)" xlink:href="#Y"/><use transform="matrix(0.06790123456790124,0,0,0.06790123456790124,50.17901234567902,0)" xlink:href="#Z"/></g><path fill="#0063cc" d="M24-248c93 1 206-16 204 79-1 75-69 88-152 82V0H24v-248zm52 121c47 0 100 7 100-41 0-47-54-39-100-39v80" id="aa"/><path fill="#0063cc" d="M123 10C108 53 80 86 19 72V37c35 8 53-11 59-39L3-190h52l48 148c12-52 28-100 44-148h51" id="ab"/><path fill="#0063cc" d="M220-157c-53 9-28 100-34 157h-49v-107c1-27-5-49-29-50C55-147 81-57 75 0H25l-1-190h47c2 12-1 28 3 38 10-53 101-56 108 0 13-22 24-43 59-42 82 1 51 116 57 194h-49v-107c-1-25-5-48-29-50" id="ac"/><path fill="#0063cc" d="M135-194c87-1 58 113 63 194h-50c-7-57 23-157-34-157-59 0-34 97-39 157H25l-1-190h47c2 12-1 28 3 38 12-26 28-41 61-42" id="ad"/><path fill="#0063cc" d="M137-138c1-29-70-34-71-4 15 46 118 7 119 86 1 83-164 76-172 9l43-7c4 19 20 25 44 25 33 8 57-30 24-41C81-84 22-81 20-136c-2-80 154-74 161-7" id="ae"/><g id="e"><use transform="matrix(0.06790123456790124,0,0,0.06790123456790124,0,0)" xlink:href="#aa"/><use transform="matrix(0.06790123456790124,0,0,0.06790123456790124,16.296296296296298,0)" xlink:href="#W"/><use transform="matrix(0.06790123456790124,0,0,0.06790123456790124,29.876543209876544,0)" xlink:href="#ab"/><use transform="matrix(0.06790123456790124,0,0,0.06790123456790124,43.45679012345679,0)" xlink:href="#ac"/><use transform="matrix(0.06790123456790124,0,0,0.06790123456790124,65.18518518518519,0)" xlink:href="#U"/><use transform="matrix(0.06790123456790124,0,0,0.06790123456790124,78.76543209876544,0)" xlink:href="#ad"/><use transform="matrix(0.06790123456790124,0,0,0.06790123456790124,93.63580246913581,0)" xlink:href="#Z"/><use transform="matrix(0.06790123456790124,0,0,0.06790123456790124,101.71604938271606,0)" xlink:href="#ae"/></g><filter id="c" filterUnits="objectBoundingBox" x="-.08" y="-.01" width="1.16" height="1.05"><feOffset result="offOut" in="SourceAlpha" dy="6"/><feGaussianBlur result="blurOut" in="offOut" stdDeviation="5"/><feColorMatrix result="colorOut" in="blurOut" values="0 0 0 0 0 0 0 0 0 0 0 0 0 0 0 0 0 0 0.16862745098039217 0"/><feBlend in="SourceGraphic" in2="colorOut"/></filter><path fill="#0063cc" d="M136-208V0H84v-208H4v-40h212v40h-80" id="af"/><path fill="#0063cc" d="M230 0l2-204L168 0h-37L68-204 70 0H24v-248h70l56 185 57-185h69V0h-46" id="ag"/><path fill="#0063cc" d="M24 0v-248h52V0H24" id="ah"/><g id="g"><use transform="matrix(0.06790123456790123,0,0,0.06790123456790123,0,0)" xlink:href="#af"/><use transform="matrix(0.06790123456790123,0,0,0.06790123456790123,14.87037037037037,0)" xlink:href="#ag"/><use transform="matrix(0.06790123456790123,0,0,0.06790123456790123,35.172839506172835,0)" xlink:href="#ah"/><use transform="matrix(0.06790123456790123,0,0,0.06790123456790123,41.96296296296296,0)" xlink:href="#ad"/><use transform="matrix(0.06790123456790123,0,0,0.06790123456790123,56.83333333333333,0)" xlink:href="#ae"/><use transform="matrix(0.06790123456790123,0,0,0.06790123456790123,70.41358024691355,0)" xlink:href="#Z"/><use transform="matrix(0.06790123456790123,0,0,0.06790123456790123,78.49382716049382,0)" xlink:href="#W"/><use transform="matrix(0.06790123456790123,0,0,0.06790123456790123,92.07407407407406,0)" xlink:href="#ad"/><use transform="matrix(0.06790123456790123,0,0,0.06790123456790123,106.94444444444444,0)" xlink:href="#Z"/></g><filter id="f" filterUnits="objectBoundingBox" x="-.08" y="-.01" width="1.16" height="1.05"><feOffset result="offOut" in="SourceAlpha" dy="6"/><feGaussianBlur result="blurOut" in="offOut" stdDeviation="5"/><feColorMatrix result="colorOut" in="blurOut" values="0 0 0 0 0 0 0 0 0 0 0 0 0 0 0 0 0 0 0.16862745098039217 0"/><feBlend in="SourceGraphic" in2="colorOut"/></filter><path fill="#333" d="M24-248c93 1 206-16 204 79-1 75-69 88-152 82V0H24v-248zm52 121c47 0 100 7 100-41 0-47-54-39-100-39v80" id="ai"/><path fill="#333" d="M199 0l-22-63H83L61 0H9l90-248h61L250 0h-51zm-33-102l-36-108c-10 38-24 72-36 108h72" id="aj"/><path fill="#333" d="M67-125c0 53 21 87 73 88 37 1 54-22 65-47l45 17C233-25 199 4 140 4 58 4 20-42 15-125 8-235 124-281 211-232c18 10 29 29 36 50l-46 12c-8-25-30-41-62-41-52 0-71 34-72 86" id="ak"/><path fill="#333" d="M169-182c-1-43-94-46-97-3 18 66 151 10 154 114 3 95-165 93-204 36-6-8-10-19-12-30l50-8c3 46 112 56 116 5-17-69-150-10-154-114-4-87 153-88 188-35 5 8 8 18 10 28" id="al"/><path fill="#333" d="M24 0v-54h51V0H24" id="am"/><path fill="#333" d="M101-251c68 0 84 54 84 127C185-50 166 4 99 4S15-52 14-124c-1-75 17-127 87-127zm-1 216c37-5 36-46 36-89s4-89-36-89c-39 0-36 45-36 89 0 43-3 85 36 89" id="an"/><path fill="#333" d="M138-131c27 9 52 24 51 61 0 53-36 74-89 74S11-19 11-69c0-35 22-54 51-61-78-25-46-121 38-121 51 0 83 19 83 66 0 30-18 49-45 54zm-38-16c24 0 32-13 32-36 1-23-11-34-32-34-22 0-33 12-32 34 0 22 9 36 32 36zm1 116c27 0 37-17 37-43 0-25-13-39-39-39-24 0-37 15-37 40 0 27 11 42 39 42" id="ao"/><g id="h"><use transform="matrix(0.06172839506172839,0,0,0.06172839506172839,0,0)" xlink:href="#ai"/><use transform="matrix(0.06172839506172839,0,0,0.06172839506172839,13.148148148148147,0)" xlink:href="#aj"/><use transform="matrix(0.06172839506172839,0,0,0.06172839506172839,29.1358024691358,0)" xlink:href="#ak"/><use transform="matrix(0.06172839506172839,0,0,0.06172839506172839,45.123456790123456,0)" xlink:href="#al"/><use transform="matrix(0.06172839506172839,0,0,0.06172839506172839,59.938271604938265,0)" xlink:href="#am"/><use transform="matrix(0.06172839506172839,0,0,0.06172839506172839,66.1111111111111,0)" xlink:href="#an"/><use transform="matrix(0.06172839506172839,0,0,0.06172839506172839,78.45679012345678,0)" xlink:href="#an"/><use transform="matrix(0.06172839506172839,0,0,0.06172839506172839,90.80246913580247,0)" xlink:href="#ao"/></g><path d="M101-251c82-7 93 87 43 132L82-64C71-53 59-42 53-27h129V0H18c2-99 128-94 128-182 0-28-16-43-45-43s-46 15-49 41l-32-3c6-41 34-60 81-64" id="ap"/><path d="M33 0v-38h34V0H33" id="aq"/><g id="i"><use transform="matrix(0.05555543209876542,0,0,0.05555543209876542,0,0)" xlink:href="#ap"/><use transform="matrix(0.05555543209876542,0,0,0.05555543209876542,11.111086419753084,0)" xlink:href="#aq"/></g><path d="M30-248c87 1 191-15 191 75 0 78-77 80-158 76V0H30v-248zm33 125c57 0 124 11 124-50 0-59-68-47-124-48v98" id="ar"/><path d="M141-36C126-15 110 5 73 4 37 3 15-17 15-53c-1-64 63-63 125-63 3-35-9-54-41-54-24 1-41 7-42 31l-33-3c5-37 33-52 76-52 45 0 72 20 72 64v82c-1 20 7 32 28 27v20c-31 9-61-2-59-35zM48-53c0 20 12 33 32 33 41-3 63-29 60-74-43 2-92-5-92 41" id="as"/><path d="M179-190L93 31C79 59 56 82 12 73V49c39 6 53-20 64-50L1-190h34L92-34l54-156h33" id="at"/><path d="M210-169c-67 3-38 105-44 169h-31v-121c0-29-5-50-35-48C34-165 62-65 56 0H25l-1-190h30c1 10-1 24 2 32 10-44 99-50 107 0 11-21 27-35 58-36 85-2 47 119 55 194h-31v-121c0-29-5-49-35-48" id="au"/><path d="M100-194c63 0 86 42 84 106H49c0 40 14 67 53 68 26 1 43-12 49-29l28 8c-11 28-37 45-77 45C44 4 14-33 15-96c1-61 26-98 85-98zm52 81c6-60-76-77-97-28-3 7-6 17-6 28h103" id="av"/><path d="M117-194c89-4 53 116 60 194h-32v-121c0-31-8-49-39-48C34-167 62-67 57 0H25l-1-190h30c1 10-1 24 2 32 11-22 29-35 61-36" id="aw"/><path d="M59-47c-2 24 18 29 38 22v24C64 9 27 4 27-40v-127H5v-23h24l9-43h21v43h35v23H59v120" id="ax"/><g id="j"><use transform="matrix(0.05555543209876542,0,0,0.05555543209876542,0,0)" xlink:href="#ar"/><use transform="matrix(0.05555543209876542,0,0,0.05555543209876542,13.3333037037037,0)" xlink:href="#as"/><use transform="matrix(0.05555543209876542,0,0,0.05555543209876542,24.444390123456785,0)" xlink:href="#at"/><use transform="matrix(0.05555543209876542,0,0,0.05555543209876542,34.44436790123456,0)" xlink:href="#au"/><use transform="matrix(0.05555543209876542,0,0,0.05555543209876542,51.05544209876542,0)" xlink:href="#av"/><use transform="matrix(0.05555543209876542,0,0,0.05555543209876542,62.166528518518504,0)" xlink:href="#aw"/><use transform="matrix(0.05555543209876542,0,0,0.05555543209876542,73.27761493827158,0)" xlink:href="#ax"/></g><path d="M33 0v-248h34V0H33" id="ay"/><path d="M135-143c-3-34-86-38-87 0 15 53 115 12 119 90S17 21 10-45l28-5c4 36 97 45 98 0-10-56-113-15-118-90-4-57 82-63 122-42 12 7 21 19 24 35" id="az"/><path d="M114-163C36-179 61-72 57 0H25l-1-190h30c1 12-1 29 2 39 6-27 23-49 58-41v29" id="aA"/><path d="M84 4C-5 8 30-112 23-190h32v120c0 31 7 50 39 49 72-2 45-101 50-169h31l1 190h-30c-1-10 1-25-2-33-11 22-28 36-60 37" id="aB"/><path d="M96-169c-40 0-48 33-48 73s9 75 48 75c24 0 41-14 43-38l32 2c-6 37-31 61-74 61-59 0-76-41-82-99-10-93 101-131 147-64 4 7 5 14 7 22l-32 3c-4-21-16-35-41-35" id="aC"/><path d="M24-231v-30h32v30H24zM24 0v-190h32V0H24" id="aD"/><path d="M100-194c62-1 85 37 85 99 1 63-27 99-86 99S16-35 15-95c0-66 28-99 85-99zM99-20c44 1 53-31 53-75 0-43-8-75-51-75s-53 32-53 75 10 74 51 75" id="aE"/><g id="k"><use transform="matrix(0.05555543209876542,0,0,0.05555543209876542,0,0)" xlink:href="#ay"/><use transform="matrix(0.05555543209876542,0,0,0.05555543209876542,5.555543209876542,0)" xlink:href="#aw"/><use transform="matrix(0.05555543209876542,0,0,0.05555543209876542,16.666629629629625,0)" xlink:href="#az"/><use transform="matrix(0.05555543209876542,0,0,0.05555543209876542,26.6666074074074,0)" xlink:href="#ax"/><use transform="matrix(0.05555543209876542,0,0,0.05555543209876542,32.222150617283944,0)" xlink:href="#aA"/><use transform="matrix(0.05555543209876542,0,0,0.05555543209876542,38.833247037037026,0)" xlink:href="#aB"/><use transform="matrix(0.05555543209876542,0,0,0.05555543209876542,49.94433345679011,0)" xlink:href="#aC"/><use transform="matrix(0.05555543209876542,0,0,0.05555543209876542,59.94431123456789,0)" xlink:href="#ax"/><use transform="matrix(0.05555543209876542,0,0,0.05555543209876542,65.49985444444444,0)" xlink:href="#aD"/><use transform="matrix(0.05555543209876542,0,0,0.05555543209876542,69.8887335802469,0)" xlink:href="#aE"/><use transform="matrix(0.05555543209876542,0,0,0.05555543209876542,80.99981999999999,0)" xlink:href="#aw"/></g><path fill="#333" d="M182-182c0 78-84 86-111 141h115V0H12c-6-101 99-100 120-180 1-22-12-31-33-32-23 0-32 14-35 34l-49-3c5-45 32-70 84-70 51 0 83 22 83 69" id="aF"/><g id="l"><use transform="matrix(0.06172839506172839,0,0,0.06172839506172839,0,0)" xlink:href="#ai"/><use transform="matrix(0.06172839506172839,0,0,0.06172839506172839,13.148148148148147,0)" xlink:href="#aj"/><use transform="matrix(0.06172839506172839,0,0,0.06172839506172839,29.1358024691358,0)" xlink:href="#ak"/><use transform="matrix(0.06172839506172839,0,0,0.06172839506172839,45.123456790123456,0)" xlink:href="#al"/><use transform="matrix(0.06172839506172839,0,0,0.06172839506172839,59.938271604938265,0)" xlink:href="#am"/><use transform="matrix(0.06172839506172839,0,0,0.06172839506172839,66.1111111111111,0)" xlink:href="#an"/><use transform="matrix(0.06172839506172839,0,0,0.06172839506172839,78.45679012345678,0)" xlink:href="#an"/><use transform="matrix(0.06172839506172839,0,0,0.06172839506172839,90.80246913580247,0)" xlink:href="#aF"/></g><path d="M126-127c33 6 58 20 58 59 0 88-139 92-164 29-3-8-5-16-6-25l32-3c6 27 21 44 54 44 32 0 52-15 52-46 0-38-36-46-79-43v-28c39 1 72-4 72-42 0-27-17-43-46-43-28 0-47 15-49 41l-32-3c6-42 35-63 81-64 48-1 79 21 79 65 0 36-21 52-52 59" id="aG"/><g id="m"><use transform="matrix(0.05555543209876542,0,0,0.05555543209876542,0,0)" xlink:href="#aG"/><use transform="matrix(0.05555543209876542,0,0,0.05555543209876542,11.111086419753084,0)" xlink:href="#aq"/></g><path d="M233-177c-1 41-23 64-60 70L243 0h-38l-65-103H63V0H30v-248c88 3 205-21 203 71zM63-129c60-2 137 13 137-47 0-61-80-42-137-45v92" id="aH"/><path d="M115-194c55 1 70 41 70 98S169 2 115 4C84 4 66-9 55-30l1 105H24l-1-265h31l2 30c10-21 28-34 59-34zm-8 174c40 0 45-34 45-75s-6-73-45-74c-42 0-51 32-51 76 0 43 10 73 51 73" id="aI"/><g id="n"><use transform="matrix(0.05555543209876542,0,0,0.05555543209876542,0,0)" xlink:href="#aH"/><use transform="matrix(0.05555543209876542,0,0,0.05555543209876542,14.388856913580245,0)" xlink:href="#av"/><use transform="matrix(0.05555543209876542,0,0,0.05555543209876542,25.499943333333327,0)" xlink:href="#az"/><use transform="matrix(0.05555543209876542,0,0,0.05555543209876542,35.49992111111111,0)" xlink:href="#aI"/><use transform="matrix(0.05555543209876542,0,0,0.05555543209876542,46.61100753086419,0)" xlink:href="#aE"/><use transform="matrix(0.05555543209876542,0,0,0.05555543209876542,57.72209395061727,0)" xlink:href="#aw"/><use transform="matrix(0.05555543209876542,0,0,0.05555543209876542,68.83318037037036,0)" xlink:href="#az"/><use transform="matrix(0.05555543209876542,0,0,0.05555543209876542,78.83315814814813,0)" xlink:href="#av"/></g><path fill="#3a414a" d="M24 0v-248h52V0H24" id="aJ"/><path fill="#3a414a" d="M135-194c87-1 58 113 63 194h-50c-7-57 23-157-34-157-59 0-34 97-39 157H25l-1-190h47c2 12-1 28 3 38 12-26 28-41 61-42" id="aK"/><path fill="#3a414a" d="M135-194c52 0 70 43 70 98 0 56-19 99-73 100-30 1-46-15-58-35L72 0H24l1-261h50v104c11-23 29-37 60-37zM114-30c31 0 40-27 40-66 0-37-7-63-39-63s-41 28-41 65c0 36 8 64 40 64" id="aL"/><path fill="#3a414a" d="M110-194c64 0 96 36 96 99 0 64-35 99-97 99-61 0-95-36-95-99 0-62 34-99 96-99zm-1 164c35 0 45-28 45-65 0-40-10-65-43-65-34 0-45 26-45 65 0 36 10 65 43 65" id="aM"/><path fill="#3a414a" d="M85 4C-2 5 27-109 22-190h50c7 57-23 150 33 157 60-5 35-97 40-157h50l1 190h-47c-2-12 1-28-3-38-12 25-28 42-61 42" id="aN"/><path fill="#3a414a" d="M88-194c31-1 46 15 58 34l-1-101h50l1 261h-48c-2-10 0-23-3-31C134-8 116 4 84 4 32 4 16-41 15-95c0-56 19-97 73-99zm17 164c33 0 40-30 41-66 1-37-9-64-41-64s-38 30-39 65c0 43 13 65 39 65" id="aO"/><g id="o"><use transform="matrix(0.06172839506172839,0,0,0.06172839506172839,0,0)" xlink:href="#aJ"/><use transform="matrix(0.06172839506172839,0,0,0.06172839506172839,6.172839506172839,0)" xlink:href="#aK"/><use transform="matrix(0.06172839506172839,0,0,0.06172839506172839,19.691358024691358,0)" xlink:href="#aL"/><use transform="matrix(0.06172839506172839,0,0,0.06172839506172839,33.20987654320987,0)" xlink:href="#aM"/><use transform="matrix(0.06172839506172839,0,0,0.06172839506172839,46.72839506172839,0)" xlink:href="#aN"/><use transform="matrix(0.06172839506172839,0,0,0.06172839506172839,60.24691358024691,0)" xlink:href="#aK"/><use transform="matrix(0.06172839506172839,0,0,0.06172839506172839,73.76543209876543,0)" xlink:href="#aO"/></g><path fill="#3a414a" d="M137-138c1-29-70-34-71-4 15 46 118 7 119 86 1 83-164 76-172 9l43-7c4 19 20 25 44 25 33 8 57-30 24-41C81-84 22-81 20-136c-2-80 154-74 161-7" id="aP"/><path fill="#3a414a" d="M115-3C79 11 28 4 28-45v-112H4v-33h27l15-45h31v45h36v33H77v99c-1 23 16 31 38 25v30" id="aQ"/><path fill="#3a414a" d="M133-34C117-15 103 5 69 4 32 3 11-16 11-54c-1-60 55-63 116-61 1-26-3-47-28-47-18 1-26 9-28 27l-52-2c7-38 36-58 82-57s74 22 75 68l1 82c-1 14 12 18 25 15v27c-30 8-71 5-69-32zm-48 3c29 0 43-24 42-57-32 0-66-3-65 30 0 17 8 27 23 27" id="aR"/><g id="p"><use transform="matrix(0.06172839506172839,0,0,0.06172839506172839,0,0)" xlink:href="#aJ"/><use transform="matrix(0.06172839506172839,0,0,0.06172839506172839,6.172839506172839,0)" xlink:href="#aK"/><use transform="matrix(0.06172839506172839,0,0,0.06172839506172839,19.691358024691358,0)" xlink:href="#aP"/><use transform="matrix(0.06172839506172839,0,0,0.06172839506172839,32.03703703703704,0)" xlink:href="#aQ"/><use transform="matrix(0.06172839506172839,0,0,0.06172839506172839,39.382716049382715,0)" xlink:href="#aR"/><use transform="matrix(0.06172839506172839,0,0,0.06172839506172839,51.72839506172839,0)" xlink:href="#aK"/><use transform="matrix(0.06172839506172839,0,0,0.06172839506172839,65.24691358024691,0)" xlink:href="#aQ"/></g><path fill="#3a414a" d="M24-248c93 1 206-16 204 79-1 75-69 88-152 82V0H24v-248zm52 121c47 0 100 7 100-41 0-47-54-39-100-39v80" id="aS"/><path fill="#3a414a" d="M123 10C108 53 80 86 19 72V37c35 8 53-11 59-39L3-190h52l48 148c12-52 28-100 44-148h51" id="aT"/><path fill="#3a414a" d="M220-157c-53 9-28 100-34 157h-49v-107c1-27-5-49-29-50C55-147 81-57 75 0H25l-1-190h47c2 12-1 28 3 38 10-53 101-56 108 0 13-22 24-43 59-42 82 1 51 116 57 194h-49v-107c-1-25-5-48-29-50" id="aU"/><path fill="#3a414a" d="M185-48c-13 30-37 53-82 52C43 2 14-33 14-96s30-98 90-98c62 0 83 45 84 108H66c0 31 8 55 39 56 18 0 30-7 34-22zm-45-69c5-46-57-63-70-21-2 6-4 13-4 21h74" id="aV"/><g id="q"><use transform="matrix(0.06172839506172839,0,0,0.06172839506172839,0,0)" xlink:href="#aS"/><use transform="matrix(0.06172839506172839,0,0,0.06172839506172839,14.814814814814813,0)" xlink:href="#aR"/><use transform="matrix(0.06172839506172839,0,0,0.06172839506172839,27.160493827160494,0)" xlink:href="#aT"/><use transform="matrix(0.06172839506172839,0,0,0.06172839506172839,39.50617283950617,0)" xlink:href="#aU"/><use transform="matrix(0.06172839506172839,0,0,0.06172839506172839,59.25925925925925,0)" xlink:href="#aV"/><use transform="matrix(0.06172839506172839,0,0,0.06172839506172839,71.60493827160494,0)" xlink:href="#aK"/><use transform="matrix(0.06172839506172839,0,0,0.06172839506172839,85.12345679012346,0)" xlink:href="#aQ"/></g><path fill="#635dff" d="M23 0v-37h61v-169l-59 37v-38l62-41h46v211h57V0H23" id="aW"/><path fill="#635dff" d="M24 0v-54h51V0H24" id="aX"/><g id="r"><use transform="matrix(0.05555543209876542,0,0,0.05555543209876542,0,0)" xlink:href="#aW"/><use transform="matrix(0.05555543209876542,0,0,0.05555543209876542,11.111086419753084,0)" xlink:href="#aX"/></g><path fill="#635dff" d="M169-182c-1-43-94-46-97-3 18 66 151 10 154 114 3 95-165 93-204 36-6-8-10-19-12-30l50-8c3 46 112 56 116 5-17-69-150-10-154-114-4-87 153-88 188-35 5 8 8 18 10 28" id="aY"/><path fill="#635dff" d="M25-224v-37h50v37H25zM25 0v-190h50V0H25" id="aZ"/><path fill="#635dff" d="M220-157c-53 9-28 100-34 157h-49v-107c1-27-5-49-29-50C55-147 81-57 75 0H25l-1-190h47c2 12-1 28 3 38 10-53 101-56 108 0 13-22 24-43 59-42 82 1 51 116 57 194h-49v-107c-1-25-5-48-29-50" id="ba"/><path fill="#635dff" d="M135-194c53 0 70 44 70 98 0 56-19 98-73 100-31 1-45-17-59-34 3 33 2 69 2 105H25l-1-265h48c2 10 0 23 3 31 11-24 29-35 60-35zM114-30c33 0 39-31 40-66 0-38-9-64-40-64-56 0-55 130 0 130" id="bb"/><path fill="#635dff" d="M25 0v-261h50V0H25" id="bc"/><path fill="#635dff" d="M121-226c-27-7-43 5-38 36h38v33H83V0H34v-157H6v-33h28c-9-59 32-81 87-68v32" id="bd"/><path fill="#635dff" d="M185-48c-13 30-37 53-82 52C43 2 14-33 14-96s30-98 90-98c62 0 83 45 84 108H66c0 31 8 55 39 56 18 0 30-7 34-22zm-45-69c5-46-57-63-70-21-2 6-4 13-4 21h74" id="be"/><path fill="#635dff" d="M88-194c31-1 46 15 58 34l-1-101h50l1 261h-48c-2-10 0-23-3-31C134-8 116 4 84 4 32 4 16-41 15-95c0-56 19-97 73-99zm17 164c33 0 40-30 41-66 1-37-9-64-41-64s-38 30-39 65c0 43 13 65 39 65" id="bf"/><g id="t"><use transform="matrix(0.05555543209876542,0,0,0.05555543209876542,0,0)" xlink:href="#aY"/><use transform="matrix(0.05555543209876542,0,0,0.05555543209876542,13.3333037037037,0)" xlink:href="#aZ"/><use transform="matrix(0.05555543209876542,0,0,0.05555543209876542,18.88884691358024,0)" xlink:href="#ba"/><use transform="matrix(0.05555543209876542,0,0,0.05555543209876542,36.66658518518518,0)" xlink:href="#bb"/><use transform="matrix(0.05555543209876542,0,0,0.05555543209876542,48.833224814814805,0)" xlink:href="#bc"/><use transform="matrix(0.05555543209876542,0,0,0.05555543209876542,54.388768024691345,0)" xlink:href="#aZ"/><use transform="matrix(0.05555543209876542,0,0,0.05555543209876542,59.94431123456789,0)" xlink:href="#bd"/><use transform="matrix(0.05555543209876542,0,0,0.05555543209876542,66.55540765432097,0)" xlink:href="#aZ"/><use transform="matrix(0.05555543209876542,0,0,0.05555543209876542,72.11095086419752,0)" xlink:href="#be"/><use transform="matrix(0.05555543209876542,0,0,0.05555543209876542,83.2220372839506,0)" xlink:href="#bf"/></g><path fill="#635dff" d="M67-125c0 53 21 87 73 88 37 1 54-22 65-47l45 17C233-25 199 4 140 4 58 4 20-42 15-125 8-235 124-281 211-232c18 10 29 29 36 50l-46 12c-8-25-30-41-62-41-52 0-71 34-72 86" id="bg"/><path fill="#635dff" d="M135-150c-39-12-60 13-60 57V0H25l-1-190h47c2 13-1 29 3 40 6-28 27-53 61-41v41" id="bh"/><path fill="#635dff" d="M115-3C79 11 28 4 28-45v-112H4v-33h27l15-45h31v45h36v33H77v99c-1 23 16 31 38 25v30" id="bi"/><g id="u"><use transform="matrix(0.05555543209876542,0,0,0.05555543209876542,0,0)" xlink:href="#bg"/><use transform="matrix(0.05555543209876542,0,0,0.05555543209876542,14.388856913580245,0)" xlink:href="#bh"/><use transform="matrix(0.05555543209876542,0,0,0.05555543209876542,22.166617407407404,0)" xlink:href="#be"/><use transform="matrix(0.05555543209876542,0,0,0.05555543209876542,33.27770382716049,0)" xlink:href="#bf"/><use transform="matrix(0.05555543209876542,0,0,0.05555543209876542,45.444343456790115,0)" xlink:href="#aZ"/><use transform="matrix(0.05555543209876542,0,0,0.05555543209876542,50.999886666666654,0)" xlink:href="#bi"/></g><path fill="#635dff" d="M136-208V0H84v-208H4v-40h212v40h-80" id="bj"/><path fill="#635dff" d="M133-34C117-15 103 5 69 4 32 3 11-16 11-54c-1-60 55-63 116-61 1-26-3-47-28-47-18 1-26 9-28 27l-52-2c7-38 36-58 82-57s74 22 75 68l1 82c-1 14 12 18 25 15v27c-30 8-71 5-69-32zm-48 3c29 0 43-24 42-57-32 0-66-3-65 30 0 17 8 27 23 27" id="bk"/><path fill="#635dff" d="M135-194c87-1 58 113 63 194h-50c-7-57 23-157-34-157-59 0-34 97-39 157H25l-1-190h47c2 12-1 28 3 38 12-26 28-41 61-42" id="bl"/><path fill="#635dff" d="M137-138c1-29-70-34-71-4 15 46 118 7 119 86 1 83-164 76-172 9l43-7c4 19 20 25 44 25 33 8 57-30 24-41C81-84 22-81 20-136c-2-80 154-74 161-7" id="bm"/><g id="v"><use transform="matrix(0.05555543209876542,0,0,0.05555543209876542,0,0)" xlink:href="#bj"/><use transform="matrix(0.05555543209876542,0,0,0.05555543209876542,11.055530987654318,0)" xlink:href="#bh"/><use transform="matrix(0.05555543209876542,0,0,0.05555543209876542,18.833291481481478,0)" xlink:href="#bk"/><use transform="matrix(0.05555543209876542,0,0,0.05555543209876542,29.944377901234564,0)" xlink:href="#bl"/><use transform="matrix(0.05555543209876542,0,0,0.05555543209876542,42.11101753086419,0)" xlink:href="#bm"/><use transform="matrix(0.05555543209876542,0,0,0.05555543209876542,53.222103950617274,0)" xlink:href="#bd"/><use transform="matrix(0.05555543209876542,0,0,0.05555543209876542,59.833200370370356,0)" xlink:href="#be"/><use transform="matrix(0.05555543209876542,0,0,0.05555543209876542,70.94428679012344,0)" xlink:href="#bh"/></g><path fill="#635dff" d="M230 0l2-204L168 0h-37L68-204 70 0H24v-248h70l56 185 57-185h69V0h-46" id="bn"/><path fill="#635dff" d="M195-6C206 82 75 100 31 46c-4-6-6-13-8-21l49-6c3 16 16 24 34 25 40 0 42-37 40-79-11 22-30 35-61 35-53 0-70-43-70-97 0-56 18-96 73-97 30 0 46 14 59 34l2-30h47zm-90-29c32 0 41-27 41-63 0-35-9-62-40-62-32 0-39 29-40 63 0 36 9 62 39 62" id="bo"/><g id="w"><use transform="matrix(0.05555543209876542,0,0,0.05555543209876542,0,0)" xlink:href="#bn"/><use transform="matrix(0.05555543209876542,0,0,0.05555543209876542,16.61107419753086,0)" xlink:href="#be"/><use transform="matrix(0.05555543209876542,0,0,0.05555543209876542,27.722160617283947,0)" xlink:href="#bm"/><use transform="matrix(0.05555543209876542,0,0,0.05555543209876542,38.83324703703703,0)" xlink:href="#bm"/><use transform="matrix(0.05555543209876542,0,0,0.05555543209876542,49.94433345679012,0)" xlink:href="#bk"/><use transform="matrix(0.05555543209876542,0,0,0.05555543209876542,61.05541987654321,0)" xlink:href="#bo"/><use transform="matrix(0.05555543209876542,0,0,0.05555543209876542,73.22205950617283,0)" xlink:href="#be"/></g><g id="x"><use transform="matrix(0.05555543209876542,0,0,0.05555543209876542,0,0)" xlink:href="#ar"/><use transform="matrix(0.05555543209876542,0,0,0.05555543209876542,13.3333037037037,0)" xlink:href="#as"/><use transform="matrix(0.05555543209876542,0,0,0.05555543209876542,24.444390123456785,0)" xlink:href="#at"/><use transform="matrix(0.05555543209876542,0,0,0.05555543209876542,34.44436790123456,0)" xlink:href="#au"/><use transform="matrix(0.05555543209876542,0,0,0.05555543209876542,51.05544209876542,0)" xlink:href="#av"/><use transform="matrix(0.05555543209876542,0,0,0.05555543209876542,62.166528518518504,0)" xlink:href="#aw"/><use transform="matrix(0.05555543209876542,0,0,0.05555543209876542,73.27761493827158,0)" xlink:href="#ax"/></g><path d="M63-220v92h138v28H63V0H30v-248h175v28H63" id="bp"/><path d="M24 0v-261h32V0H24" id="bq"/><path d="M206 0h-36l-40-164L89 0H53L-1-190h32L70-26l43-164h34l41 164 42-164h31" id="br"/><g id="y"><use transform="matrix(0.05555543209876542,0,0,0.05555543209876542,0,0)" xlink:href="#bp"/><use transform="matrix(0.05555543209876542,0,0,0.05555543209876542,12.166639629629627,0)" xlink:href="#bq"/><use transform="matrix(0.05555543209876542,0,0,0.05555543209876542,16.555518765432094,0)" xlink:href="#aE"/><use transform="matrix(0.05555543209876542,0,0,0.05555543209876542,27.666605185185176,0)" xlink:href="#br"/></g><path d="M30 0v-248h187v28H63v79h144v27H63v87h162V0H30" id="bs"/><path d="M141 0L90-78 38 0H4l68-98-65-92h35l48 74 47-74h35l-64 92 68 98h-35" id="bt"/><g id="z"><use transform="matrix(0.05555543209876542,0,0,0.05555543209876542,0,0)" xlink:href="#bs"/><use transform="matrix(0.05555543209876542,0,0,0.05555543209876542,13.3333037037037,0)" xlink:href="#bt"/><use transform="matrix(0.05555543209876542,0,0,0.05555543209876542,23.333281481481478,0)" xlink:href="#av"/><use transform="matrix(0.05555543209876542,0,0,0.05555543209876542,34.444367901234564,0)" xlink:href="#aC"/><use transform="matrix(0.05555543209876542,0,0,0.05555543209876542,44.44434567901234,0)" xlink:href="#aB"/><use transform="matrix(0.05555543209876542,0,0,0.05555543209876542,55.55543209876543,0)" xlink:href="#ax"/><use transform="matrix(0.05555543209876542,0,0,0.05555543209876542,61.11097530864196,0)" xlink:href="#aD"/><use transform="matrix(0.05555543209876542,0,0,0.05555543209876542,65.49985444444444,0)" xlink:href="#aE"/><use transform="matrix(0.05555543209876542,0,0,0.05555543209876542,76.61094086419752,0)" xlink:href="#aw"/></g><path fill="#333" d="M85 4C-2 5 27-109 22-190h50c7 57-23 150 33 157 60-5 35-97 40-157h50l1 190h-47c-2-12 1-28-3-38-12 25-28 42-61 42" id="bu"/><path fill="#333" d="M115-3C79 11 28 4 28-45v-112H4v-33h27l15-45h31v45h36v33H77v99c-1 23 16 31 38 25v30" id="bv"/><path fill="#333" d="M114-157C55-157 80-60 75 0H25v-261h50l-1 109c12-26 28-41 61-42 86-1 58 113 63 194h-50c-7-57 23-157-34-157" id="bw"/><path fill="#333" d="M110-194c64 0 96 36 96 99 0 64-35 99-97 99-61 0-95-36-95-99 0-62 34-99 96-99zm-1 164c35 0 45-28 45-65 0-40-10-65-43-65-34 0-45 26-45 65 0 36 10 65 43 65" id="bx"/><path fill="#333" d="M135-150c-39-12-60 13-60 57V0H25l-1-190h47c2 13-1 29 3 40 6-28 27-53 61-41v41" id="by"/><path fill="#333" d="M25-224v-37h50v37H25zM25 0v-190h50V0H25" id="bz"/><path fill="#333" d="M137-138c1-29-70-34-71-4 15 46 118 7 119 86 1 83-164 76-172 9l43-7c4 19 20 25 44 25 33 8 57-30 24-41C81-84 22-81 20-136c-2-80 154-74 161-7" id="bA"/><path fill="#333" d="M133-34C117-15 103 5 69 4 32 3 11-16 11-54c-1-60 55-63 116-61 1-26-3-47-28-47-18 1-26 9-28 27l-52-2c7-38 36-58 82-57s74 22 75 68l1 82c-1 14 12 18 25 15v27c-30 8-71 5-69-32zm-48 3c29 0 43-24 42-57-32 0-66-3-65 30 0 17 8 27 23 27" id="bB"/><path fill="#333" d="M135-194c87-1 58 113 63 194h-50c-7-57 23-157-34-157-59 0-34 97-39 157H25l-1-190h47c2 12-1 28 3 38 12-26 28-41 61-42" id="bC"/><g id="A"><use transform="matrix(0.055555555555555546,0,0,0.055555555555555546,0,0)" xlink:href="#aj"/><use transform="matrix(0.055555555555555546,0,0,0.055555555555555546,14.388888888888886,0)" xlink:href="#bu"/><use transform="matrix(0.055555555555555546,0,0,0.055555555555555546,26.55555555555555,0)" xlink:href="#bv"/><use transform="matrix(0.055555555555555546,0,0,0.055555555555555546,33.16666666666666,0)" xlink:href="#bw"/><use transform="matrix(0.055555555555555546,0,0,0.055555555555555546,45.33333333333332,0)" xlink:href="#bx"/><use transform="matrix(0.055555555555555546,0,0,0.055555555555555546,57.49999999999999,0)" xlink:href="#by"/><use transform="matrix(0.055555555555555546,0,0,0.055555555555555546,65.27777777777776,0)" xlink:href="#bz"/><use transform="matrix(0.055555555555555546,0,0,0.055555555555555546,70.83333333333331,0)" xlink:href="#bA"/><use transform="matrix(0.055555555555555546,0,0,0.055555555555555546,81.94444444444443,0)" xlink:href="#bB"/><use transform="matrix(0.055555555555555546,0,0,0.055555555555555546,93.05555555555554,0)" xlink:href="#bv"/><use transform="matrix(0.055555555555555546,0,0,0.055555555555555546,99.66666666666666,0)" xlink:href="#bz"/><use transform="matrix(0.055555555555555546,0,0,0.055555555555555546,105.22222222222221,0)" xlink:href="#bx"/><use transform="matrix(0.055555555555555546,0,0,0.055555555555555546,117.3888888888889,0)" xlink:href="#bC"/></g><path fill="#333" d="M195-6C206 82 75 100 31 46c-4-6-6-13-8-21l49-6c3 16 16 24 34 25 40 0 42-37 40-79-11 22-30 35-61 35-53 0-70-43-70-97 0-56 18-96 73-97 30 0 46 14 59 34l2-30h47zm-90-29c32 0 41-27 41-63 0-35-9-62-40-62-32 0-39 29-40 63 0 36 9 62 39 62" id="bD"/><g id="B"><use transform="matrix(0.05555555555555555,0,0,0.05555555555555555,0,0)" xlink:href="#ai"/><use transform="matrix(0.05555555555555555,0,0,0.05555555555555555,13.333333333333332,0)" xlink:href="#bx"/><use transform="matrix(0.05555555555555555,0,0,0.05555555555555555,25.5,0)" xlink:href="#bA"/><use transform="matrix(0.05555555555555555,0,0,0.05555555555555555,36.611111111111114,0)" xlink:href="#bv"/><use transform="matrix(0.05555555555555555,0,0,0.05555555555555555,43.22222222222223,0)" xlink:href="#bz"/><use transform="matrix(0.05555555555555555,0,0,0.05555555555555555,48.777777777777786,0)" xlink:href="#bC"/><use transform="matrix(0.05555555555555555,0,0,0.05555555555555555,60.94444444444446,0)" xlink:href="#bD"/></g><path fill="#333" d="M185-48c-13 30-37 53-82 52C43 2 14-33 14-96s30-98 90-98c62 0 83 45 84 108H66c0 31 8 55 39 56 18 0 30-7 34-22zm-45-69c5-46-57-63-70-21-2 6-4 13-4 21h74" id="bE"/><path fill="#333" d="M25 0v-261h50V0H25" id="bF"/><path fill="#333" d="M220-157c-53 9-28 100-34 157h-49v-107c1-27-5-49-29-50C55-147 81-57 75 0H25l-1-190h47c2 12-1 28 3 38 10-53 101-56 108 0 13-22 24-43 59-42 82 1 51 116 57 194h-49v-107c-1-25-5-48-29-50" id="bG"/><g id="C"><use transform="matrix(0.055555555555555546,0,0,0.055555555555555546,0,0)" xlink:href="#al"/><use transform="matrix(0.055555555555555546,0,0,0.055555555555555546,13.33333333333333,0)" xlink:href="#bE"/><use transform="matrix(0.055555555555555546,0,0,0.055555555555555546,24.44444444444444,0)" xlink:href="#bv"/><use transform="matrix(0.055555555555555546,0,0,0.055555555555555546,31.05555555555555,0)" xlink:href="#bv"/><use transform="matrix(0.055555555555555546,0,0,0.055555555555555546,37.66666666666666,0)" xlink:href="#bF"/><use transform="matrix(0.055555555555555546,0,0,0.055555555555555546,43.222222222222214,0)" xlink:href="#bE"/><use transform="matrix(0.055555555555555546,0,0,0.055555555555555546,54.33333333333332,0)" xlink:href="#bG"/><use transform="matrix(0.055555555555555546,0,0,0.055555555555555546,72.1111111111111,0)" xlink:href="#bE"/><use transform="matrix(0.055555555555555546,0,0,0.055555555555555546,83.22222222222221,0)" xlink:href="#bC"/><use transform="matrix(0.055555555555555546,0,0,0.055555555555555546,95.38888888888889,0)" xlink:href="#bv"/></g><g id="D"><use transform="matrix(0.05555555555555555,0,0,0.05555555555555555,0,0)" xlink:href="#ai"/><use transform="matrix(0.05555555555555555,0,0,0.05555555555555555,13.333333333333332,0)" xlink:href="#bx"/><use transform="matrix(0.05555555555555555,0,0,0.05555555555555555,25.5,0)" xlink:href="#bA"/><use transform="matrix(0.05555555555555555,0,0,0.05555555555555555,36.611111111111114,0)" xlink:href="#bv"/><use transform="matrix(0.05555555555555555,0,0,0.05555555555555555,43.22222222222223,0)" xlink:href="#bz"/><use transform="matrix(0.05555555555555555,0,0,0.05555555555555555,48.777777777777786,0)" xlink:href="#bC"/><use transform="matrix(0.05555555555555555,0,0,0.05555555555555555,60.94444444444446,0)" xlink:href="#bD"/></g><path fill="#635dff" d="M62-168c30 0 50 19 50 48S92-70 62-70c-29 0-48-21-48-50s20-48 48-48" id="bH"/><use transform="matrix(0.055555555555555546,0,0,0.055555555555555546,0,0)" xlink:href="#bH" id="E"/><path fill="#635dff" d="M114-163C36-179 61-72 57 0H25l-1-190h30c1 12-1 29 2 39 6-27 23-49 58-41v29" id="bI"/><path fill="#635dff" d="M100-194c63 0 86 42 84 106H49c0 40 14 67 53 68 26 1 43-12 49-29l28 8c-11 28-37 45-77 45C44 4 14-33 15-96c1-61 26-98 85-98zm52 81c6-60-76-77-97-28-3 7-6 17-6 28h103" id="bJ"/><path fill="#635dff" d="M145-31C134-9 116 4 85 4 32 4 16-35 15-94c0-59 17-99 70-100 32-1 48 14 60 33 0-11-1-24 2-32h30l-1 268h-32zM93-21c41 0 51-33 51-76s-8-73-50-73c-40 0-46 35-46 75s5 74 45 74" id="bK"/><path fill="#635dff" d="M84 4C-5 8 30-112 23-190h32v120c0 31 7 50 39 49 72-2 45-101 50-169h31l1 190h-30c-1-10 1-25-2-33-11 22-28 36-60 37" id="bL"/><path fill="#635dff" d="M135-143c-3-34-86-38-87 0 15 53 115 12 119 90S17 21 10-45l28-5c4 36 97 45 98 0-10-56-113-15-118-90-4-57 82-63 122-42 12 7 21 19 24 35" id="bM"/><path fill="#635dff" d="M59-47c-2 24 18 29 38 22v24C64 9 27 4 27-40v-127H5v-23h24l9-43h21v43h35v23H59v120" id="bN"/><path fill="#635dff" d="M-5 72V49h209v23H-5" id="bO"/><path fill="#635dff" d="M24-231v-30h32v30H24zM24 0v-190h32V0H24" id="bP"/><path fill="#635dff" d="M85-194c31 0 48 13 60 33l-1-100h32l1 261h-30c-2-10 0-23-3-31C134-8 116 4 85 4 32 4 16-35 15-94c0-66 23-100 70-100zm9 24c-40 0-46 34-46 75 0 40 6 74 45 74 42 0 51-32 51-76 0-42-9-74-50-73" id="bQ"/><g id="F"><use transform="matrix(0.055555555555555546,0,0,0.055555555555555546,0,0)" xlink:href="#bI"/><use transform="matrix(0.055555555555555546,0,0,0.055555555555555546,6.61111111111111,0)" xlink:href="#bJ"/><use transform="matrix(0.055555555555555546,0,0,0.055555555555555546,17.722222222222218,0)" xlink:href="#bK"/><use transform="matrix(0.055555555555555546,0,0,0.055555555555555546,28.83333333333333,0)" xlink:href="#bL"/><use transform="matrix(0.055555555555555546,0,0,0.055555555555555546,39.944444444444436,0)" xlink:href="#bJ"/><use transform="matrix(0.055555555555555546,0,0,0.055555555555555546,51.05555555555554,0)" xlink:href="#bM"/><use transform="matrix(0.055555555555555546,0,0,0.055555555555555546,61.05555555555554,0)" xlink:href="#bN"/><use transform="matrix(0.055555555555555546,0,0,0.055555555555555546,66.6111111111111,0)" xlink:href="#bO"/><use transform="matrix(0.055555555555555546,0,0,0.055555555555555546,77.72222222222221,0)" xlink:href="#bP"/><use transform="matrix(0.055555555555555546,0,0,0.055555555555555546,82.1111111111111,0)" xlink:href="#bQ"/></g><path fill="#635dff" d="M96-169c-40 0-48 33-48 73s9 75 48 75c24 0 41-14 43-38l32 2c-6 37-31 61-74 61-59 0-76-41-82-99-10-93 101-131 147-64 4 7 5 14 7 22l-32 3c-4-21-16-35-41-35" id="bR"/><path fill="#635dff" d="M100-194c62-1 85 37 85 99 1 63-27 99-86 99S16-35 15-95c0-66 28-99 85-99zM99-20c44 1 53-31 53-75 0-43-8-75-51-75s-53 32-53 75 10 74 51 75" id="bS"/><g id="G"><use transform="matrix(0.055555555555555546,0,0,0.055555555555555546,0,0)" xlink:href="#bR"/><use transform="matrix(0.055555555555555546,0,0,0.055555555555555546,9.999999999999998,0)" xlink:href="#bI"/><use transform="matrix(0.055555555555555546,0,0,0.055555555555555546,16.611111111111107,0)" xlink:href="#bJ"/><use transform="matrix(0.055555555555555546,0,0,0.055555555555555546,27.722222222222214,0)" xlink:href="#bQ"/><use transform="matrix(0.055555555555555546,0,0,0.055555555555555546,38.83333333333332,0)" xlink:href="#bP"/><use transform="matrix(0.055555555555555546,0,0,0.055555555555555546,43.22222222222221,0)" xlink:href="#bN"/><use transform="matrix(0.055555555555555546,0,0,0.055555555555555546,48.777777777777764,0)" xlink:href="#bS"/><use transform="matrix(0.055555555555555546,0,0,0.055555555555555546,59.888888888888864,0)" xlink:href="#bI"/></g><path fill="#635dff" d="M117-194c89-4 53 116 60 194h-32v-121c0-31-8-49-39-48C34-167 62-67 57 0H25l-1-190h30c1 10-1 24 2 32 11-22 29-35 61-36" id="bT"/><path fill="#635dff" d="M141-36C126-15 110 5 73 4 37 3 15-17 15-53c-1-64 63-63 125-63 3-35-9-54-41-54-24 1-41 7-42 31l-33-3c5-37 33-52 76-52 45 0 72 20 72 64v82c-1 20 7 32 28 27v20c-31 9-61-2-59-35zM48-53c0 20 12 33 32 33 41-3 63-29 60-74-43 2-92-5-92 41" id="bU"/><path fill="#635dff" d="M210-169c-67 3-38 105-44 169h-31v-121c0-29-5-50-35-48C34-165 62-65 56 0H25l-1-190h30c1 10-1 24 2 32 10-44 99-50 107 0 11-21 27-35 58-36 85-2 47 119 55 194h-31v-121c0-29-5-49-35-48" id="bV"/><g id="H"><use transform="matrix(0.055555555555555546,0,0,0.055555555555555546,0,0)" xlink:href="#bT"/><use transform="matrix(0.055555555555555546,0,0,0.055555555555555546,11.111111111111109,0)" xlink:href="#bU"/><use transform="matrix(0.055555555555555546,0,0,0.055555555555555546,22.222222222222218,0)" xlink:href="#bV"/><use transform="matrix(0.055555555555555546,0,0,0.055555555555555546,38.83333333333333,0)" xlink:href="#bJ"/></g><g id="I"><use transform="matrix(0.055555555555555546,0,0,0.055555555555555546,0,0)" xlink:href="#bU"/><use transform="matrix(0.055555555555555546,0,0,0.055555555555555546,11.111111111111109,0)" xlink:href="#bT"/><use transform="matrix(0.055555555555555546,0,0,0.055555555555555546,22.222222222222218,0)" xlink:href="#bQ"/></g><path fill="#635dff" d="M115-194c53 0 69 39 70 98 0 66-23 100-70 100C84 3 66-7 56-30L54 0H23l1-261h32v101c10-23 28-34 59-34zm-8 174c40 0 45-34 45-75 0-40-5-75-45-74-42 0-51 32-51 76 0 43 10 73 51 73" id="bW"/><g id="J"><use transform="matrix(0.055555555555555546,0,0,0.055555555555555546,0,0)" xlink:href="#bP"/><use transform="matrix(0.055555555555555546,0,0,0.055555555555555546,4.388888888888888,0)" xlink:href="#bW"/><use transform="matrix(0.055555555555555546,0,0,0.055555555555555546,15.499999999999996,0)" xlink:href="#bU"/><use transform="matrix(0.055555555555555546,0,0,0.055555555555555546,26.611111111111107,0)" xlink:href="#bT"/></g><path fill="#635dff" d="M101-234c-31-9-42 10-38 44h38v23H63V0H32v-167H5v-23h27c-7-52 17-82 69-68v24" id="bX"/><g id="K"><use transform="matrix(0.055555555555555546,0,0,0.055555555555555546,0,0)" xlink:href="#bI"/><use transform="matrix(0.055555555555555546,0,0,0.055555555555555546,6.61111111111111,0)" xlink:href="#bJ"/><use transform="matrix(0.055555555555555546,0,0,0.055555555555555546,17.722222222222218,0)" xlink:href="#bX"/><use transform="matrix(0.055555555555555546,0,0,0.055555555555555546,23.27777777777777,0)" xlink:href="#bJ"/><use transform="matrix(0.055555555555555546,0,0,0.055555555555555546,34.38888888888888,0)" xlink:href="#bI"/><use transform="matrix(0.055555555555555546,0,0,0.055555555555555546,40.999999999999986,0)" xlink:href="#bJ"/><use transform="matrix(0.055555555555555546,0,0,0.055555555555555546,52.11111111111109,0)" xlink:href="#bT"/><use transform="matrix(0.055555555555555546,0,0,0.055555555555555546,63.2222222222222,0)" xlink:href="#bR"/><use transform="matrix(0.055555555555555546,0,0,0.055555555555555546,73.2222222222222,0)" xlink:href="#bJ"/></g><g id="L"><use transform="matrix(0.055555555555555546,0,0,0.055555555555555546,0,0)" xlink:href="#bU"/><use transform="matrix(0.055555555555555546,0,0,0.055555555555555546,11.111111111111109,0)" xlink:href="#bV"/><use transform="matrix(0.055555555555555546,0,0,0.055555555555555546,27.722222222222214,0)" xlink:href="#bS"/><use transform="matrix(0.055555555555555546,0,0,0.055555555555555546,38.83333333333332,0)" xlink:href="#bL"/><use transform="matrix(0.055555555555555546,0,0,0.055555555555555546,49.94444444444443,0)" xlink:href="#bT"/><use transform="matrix(0.055555555555555546,0,0,0.055555555555555546,61.05555555555553,0)" xlink:href="#bN"/></g><path fill="#635dff" d="M179-190L93 31C79 59 56 82 12 73V49c39 6 53-20 64-50L1-190h34L92-34l54-156h33" id="bY"/><g id="M"><use transform="matrix(0.055555555555555546,0,0,0.055555555555555546,0,0)" xlink:href="#bR"/><use transform="matrix(0.055555555555555546,0,0,0.055555555555555546,9.999999999999998,0)" xlink:href="#bL"/><use transform="matrix(0.055555555555555546,0,0,0.055555555555555546,21.111111111111107,0)" xlink:href="#bI"/><use transform="matrix(0.055555555555555546,0,0,0.055555555555555546,27.722222222222218,0)" xlink:href="#bI"/><use transform="matrix(0.055555555555555546,0,0,0.055555555555555546,34.33333333333333,0)" xlink:href="#bJ"/><use transform="matrix(0.055555555555555546,0,0,0.055555555555555546,45.444444444444436,0)" xlink:href="#bT"/><use transform="matrix(0.055555555555555546,0,0,0.055555555555555546,56.55555555555554,0)" xlink:href="#bR"/><use transform="matrix(0.055555555555555546,0,0,0.055555555555555546,66.55555555555554,0)" xlink:href="#bY"/></g><g id="N"><use transform="matrix(0.055555555555555546,0,0,0.055555555555555546,0,0)" xlink:href="#bQ"/><use transform="matrix(0.055555555555555546,0,0,0.055555555555555546,11.111111111111109,0)" xlink:href="#bJ"/><use transform="matrix(0.055555555555555546,0,0,0.055555555555555546,22.222222222222218,0)" xlink:href="#bW"/><use transform="matrix(0.055555555555555546,0,0,0.055555555555555546,33.33333333333333,0)" xlink:href="#bN"/><use transform="matrix(0.055555555555555546,0,0,0.055555555555555546,38.888888888888886,0)" xlink:href="#bS"/><use transform="matrix(0.055555555555555546,0,0,0.055555555555555546,49.99999999999999,0)" xlink:href="#bI"/></g><g id="O"><use transform="matrix(0.055555555555555546,0,0,0.055555555555555546,0,0)" xlink:href="#bP"/><use transform="matrix(0.055555555555555546,0,0,0.055555555555555546,4.388888888888888,0)" xlink:href="#bW"/><use transform="matrix(0.055555555555555546,0,0,0.055555555555555546,15.499999999999996,0)" xlink:href="#bU"/><use transform="matrix(0.055555555555555546,0,0,0.055555555555555546,26.611111111111107,0)" xlink:href="#bT"/></g><path d="M155-56V0h-30v-56H8v-25l114-167h33v167h35v25h-35zm-30-156c-27 46-58 90-88 131h88v-131" id="bZ"/><g id="P"><use transform="matrix(0.05555543209876542,0,0,0.05555543209876542,0,0)" xlink:href="#bZ"/><use transform="matrix(0.05555543209876542,0,0,0.05555543209876542,11.111086419753084,0)" xlink:href="#aq"/></g><path d="M212-179c-10-28-35-45-73-45-59 0-87 40-87 99 0 60 29 101 89 101 43 0 62-24 78-52l27 14C228-24 195 4 139 4 59 4 22-46 18-125c-6-104 99-153 187-111 19 9 31 26 39 46" id="ca"/><path d="M101-234c-31-9-42 10-38 44h38v23H63V0H32v-167H5v-23h27c-7-52 17-82 69-68v24" id="cb"/><g id="Q"><use transform="matrix(0.05555543209876542,0,0,0.05555543209876542,0,0)" xlink:href="#ca"/><use transform="matrix(0.05555543209876542,0,0,0.05555543209876542,14.388856913580245,0)" xlink:href="#aE"/><use transform="matrix(0.05555543209876542,0,0,0.05555543209876542,25.499943333333327,0)" xlink:href="#aw"/><use transform="matrix(0.05555543209876542,0,0,0.05555543209876542,36.61102975308641,0)" xlink:href="#cb"/><use transform="matrix(0.05555543209876542,0,0,0.05555543209876542,42.16657296296295,0)" xlink:href="#aD"/><use transform="matrix(0.05555543209876542,0,0,0.05555543209876542,46.55545209876542,0)" xlink:href="#aA"/><use transform="matrix(0.05555543209876542,0,0,0.05555543209876542,53.16654851851851,0)" xlink:href="#au"/><use transform="matrix(0.05555543209876542,0,0,0.05555543209876542,69.77762271604936,0)" xlink:href="#as"/><use transform="matrix(0.05555543209876542,0,0,0.05555543209876542,80.88870913580244,0)" xlink:href="#ax"/><use transform="matrix(0.05555543209876542,0,0,0.05555543209876542,86.44425234567899,0)" xlink:href="#aD"/><use transform="matrix(0.05555543209876542,0,0,0.05555543209876542,90.83313148148146,0)" xlink:href="#aE"/><use transform="matrix(0.05555543209876542,0,0,0.05555543209876542,101.94421790123454,0)" xlink:href="#aw"/></g></defs></g></svg>